<?xml version="1.0" encoding="UTF-8" standalone="no"?>
<!-- "This file was generated by the S2S application" -->
<svg
    version="1.1"
    id="CLEM341"
    width="8579"
    height="4362"
    viewbox="0 0 8579 4362"
    xmlns:xlink="http://www.w3.org/1999/xlink"
    xmlns="http://www.w3.org/2000/svg"
    xmlns:svg="http://www.w3.org/2000/svg">
    <image
        id="image"
        width="8579"
        height="4362"
        stereotheque_dpiX = "1200"
        stereotheque_dpiY = "1200"
        stereotheque_max-disparity-left = "1817,1900"
        stereotheque_min-disparity-left = "3848,3728"
        stereotheque_max-disparity-right = "5229,1996"
        stereotheque_min-disparity-right = "7239,3826"
        preserveAspectRatio="none"
        xlink:href="CLEM341.jpg"/>
    <path
        style="fill:none;fill-opacity:1;stroke:#ff0000;stroke-width:2;stroke-linecap:butt;stroke-linejoin:miter;stroke-miterlimit:4;stroke-dasharray:none;stroke-opacity:1"
        id="lefteye"
        d="M1035,430 L1069,401 L1083,393 L1142,362 L1167,351 L1170,350 L1356,291 L1394,281 L1419,277 L1518,274 L1760,268 L1914,265 L2209,263 L2523,263 L2694,264 L3619,276 L3629,277 L3674,283 L3681,284 L3694,286 L3860,343 L3907,361 L3924,369 L3996,416 L4021,435 L4050,461 L4093,502 L4113,522 L4128,539 L4148,563 L4151,567 L4162,585 L4167,594 L4180,620 L4204,671 L4255,784 L4264,1131 L4264,1960 L4252,2810 L4237,3816 L770,3812 L766,3811 L763,3808 L756,3585 L768,1870 L794,973 L795,965 L800,932 L815,838 L823,792 L847,708 L849,702 L893,598 L956,513 L974,489 L978,484 L991,470 L998,463 L1010,452 L1035,430"/>
    <path
        style="fill:none;fill-opacity:1;stroke:#00ff00;stroke-width:2;stroke-linecap:butt;stroke-linejoin:miter;stroke-miterlimit:4;stroke-dasharray:none;stroke-opacity:1"
        id="righteye"
        d="M7717,494 L7683,465 L7669,457 L7610,426 L7585,415 L7582,414 L7396,355 L7358,345 L7333,341 L7234,338 L6992,332 L6838,329 L6543,327 L6229,327 L6058,328 L5133,340 L5123,341 L5078,347 L5071,348 L5058,350 L4892,407 L4845,425 L4828,433 L4756,480 L4731,499 L4702,525 L4659,566 L4639,586 L4624,603 L4604,627 L4601,631 L4590,649 L4585,658 L4572,684 L4548,735 L4497,848 L4488,1195 L4488,2024 L4500,2874 L4515,3880 L7982,3876 L7986,3875 L7989,3872 L7996,3649 L7984,1934 L7958,1037 L7957,1029 L7952,996 L7937,902 L7929,856 L7905,772 L7903,766 L7859,662 L7796,577 L7778,553 L7774,548 L7761,534 L7754,527 L7742,516 L7717,494"/>
    <path
        style="fill:none;fill-opacity:1;stroke:#000000;stroke-width:2;stroke-linecap:butt;stroke-linejoin:miter;stroke-miterlimit:4;stroke-dasharray:none;stroke-opacity:1"
        id="support"
        d="M0, 0 L8579, 0 L8579,4362 L0, 4362 L0, 0"/>
    <path
        style="fill:none;fill-opacity:1;stroke:#0000ff;stroke-width:2;stroke-linecap:butt;stroke-linejoin:miter;stroke-miterlimit:4;stroke-dasharray:none;stroke-opacity:1"
        id="lefteye-bottom-line"
        d="M4237,3816 L763,3809"/>
    <path
        style="fill:none;fill-opacity:1;stroke:#0000ff;stroke-width:2;stroke-linecap:butt;stroke-linejoin:miter;stroke-miterlimit:4;stroke-dasharray:none;stroke-opacity:1"
        id="righteye-bottom-line"
        d="M4515,3880 L7986,3875"/>
    <path
        style="fill:none;fill-opacity:1;stroke:#0000ff;stroke-width:2;stroke-linecap:butt;stroke-linejoin:miter;stroke-miterlimit:4;stroke-dasharray:none;stroke-opacity:1"
        id="support-bottom-line"
        d="M8579,4362 L0, 4362"/>
</svg>