<?xml version="1.0" encoding="UTF-8" standalone="no"?>
<!-- "This file was generated by the S2S application" -->
<svg
    version="1.1"
    id="DEZ137"
    width="5067"
    height="2051"
    viewbox="0 0 5067 2051"
    xmlns:xlink="http://www.w3.org/1999/xlink"
    xmlns="http://www.w3.org/2000/svg"
    xmlns:svg="http://www.w3.org/2000/svg">
    <image
        id="image"
        width="5067"
        height="2051"
        stereotheque_dpiX = "1200"
        stereotheque_dpiY = "1200"
        stereotheque_max-disparity-left = "-1,-1"
        stereotheque_min-disparity-left = "-1,-1"
        stereotheque_max-disparity-right = "-1,-1"
        stereotheque_min-disparity-right = "-1,-1"
        preserveAspectRatio="none"
        xlink:href="DEZ137.jpg"/>
    <path
        style="fill:none;fill-opacity:1;stroke:#ff0000;stroke-width:2;stroke-linecap:butt;stroke-linejoin:miter;stroke-miterlimit:4;stroke-dasharray:none;stroke-opacity:1"
        id="lefteye"
        d="M2200,14 L2200,15 L2200,16 L2199,17 L2198,18 L2197,18 L2196,18 L2195,19 L2194,18 L2193,17 L2192,16 L2192,15 L2192,14 L2192,13 L2192,12 L2192,11 L2192,10 L2192,9 L2192,8 L2192,7 L2192,6 L2193,5 L2192,4 L2191,3 L2190,3 L2189,3 L2188,3 L2187,3 L2186,3 L2185,3 L2184,3 L2183,3 L2182,3 L2181,3 L2180,3 L2179,3 L2178,3 L2177,3 L2176,3 L2175,3 L2174,3 L2173,3 L2172,3 L2171,3 L2170,3 L2169,3 L2168,3 L2167,3 L2166,3 L2165,3 L2164,3 L2163,3 L2162,3 L2161,3 L2160,3 L2159,3 L2158,3 L2157,3 L2156,3 L2155,3 L2154,3 L2153,3 L2152,3 L2151,3 L2150,3 L2149,3 L2148,3 L2147,3 L2146,3 L2145,3 L2144,3 L2143,3 L2142,3 L2141,3 L2140,3 L2139,3 L2138,3 L2137,3 L2136,3 L2135,3 L2134,3 L2133,3 L2132,3 L2131,3 L2130,3 L2129,3 L2128,3 L2127,3 L2126,3 L2125,3 L2124,3 L2123,3 L2122,3 L2121,3 L2120,3 L2119,3 L2118,3 L2117,3 L2116,3 L2115,3 L2114,3 L2113,3 L2112,3 L2111,3 L2110,3 L2109,3 L2108,3 L2107,3 L2106,3 L2105,3 L2104,3 L2103,3 L2102,3 L2101,3 L2100,3 L2099,3 L2098,3 L2097,3 L2096,3 L2095,3 L2094,3 L2093,3 L2092,3 L2091,3 L2090,3 L2089,3 L2088,2 L2087,2 L2086,2 L2085,2 L2084,2 L2083,2 L2082,2 L2081,2 L2080,2 L2079,2 L2078,2 L2077,2 L2076,2 L2075,2 L2074,2 L2073,2 L2072,2 L2071,2 L2070,2 L2069,2 L2068,2 L2067,2 L2066,2 L2065,2 L2064,2 L2063,2 L2062,2 L2061,2 L2060,2 L2059,2 L2058,2 L2057,2 L2056,2 L2055,2 L2054,2 L2053,2 L2052,2 L2051,2 L2050,2 L2049,2 L2048,2 L2047,2 L2046,2 L2045,2 L2044,2 L2043,2 L2042,2 L2041,2 L2040,2 L2039,2 L2038,2 L2037,2 L2036,2 L2035,2 L2034,2 L2033,2 L2032,2 L2031,2 L2030,2 L2029,3 L2028,3 L2027,3 L2026,3 L2025,3 L2024,3 L2023,3 L2022,3 L2021,3 L2020,2 L2019,2 L2018,3 L2017,3 L2016,3 L2015,3 L2014,3 L2013,3 L2012,3 L2011,3 L2010,3 L2009,3 L2008,2 L2007,2 L2006,3 L2005,2 L2004,2 L2003,2 L2002,3 L2001,3 L2000,3 L1999,3 L1998,3 L1997,3 L1996,3 L1995,2 L1994,2 L1993,2 L1992,3 L1991,3 L1990,3 L1989,3 L1988,3 L1987,3 L1986,3 L1985,3 L1984,3 L1983,3 L1982,3 L1981,3 L1980,3 L1979,3 L1978,3 L1977,3 L1976,3 L1975,3 L1974,3 L1973,3 L1972,3 L1971,3 L1970,2 L1969,2 L1968,2 L1967,2 L1966,2 L1965,3 L1964,3 L1963,2 L1962,2 L1961,2 L1960,2 L1959,2 L1958,2 L1957,2 L1956,2 L1955,2 L1954,2 L1953,2 L1952,2 L1951,2 L1950,2 L1949,2 L1948,2 L1947,2 L1946,2 L1945,2 L1944,2 L1943,2 L1942,2 L1941,2 L1940,2 L1939,2 L1938,2 L1937,2 L1936,3 L1935,3 L1934,2 L1933,2 L1932,2 L1931,2 L1930,2 L1929,2 L1928,2 L1927,2 L1926,2 L1925,2 L1924,2 L1923,2 L1922,3 L1921,3 L1920,3 L1919,2 L1918,2 L1917,2 L1916,2 L1915,3 L1914,3 L1913,3 L1912,3 L1911,3 L1910,3 L1909,3 L1908,3 L1907,3 L1906,3 L1905,3 L1904,3 L1903,3 L1902,3 L1901,3 L1900,3 L1899,3 L1898,3 L1897,3 L1896,3 L1895,3 L1894,3 L1893,3 L1892,3 L1891,3 L1890,3 L1889,3 L1888,3 L1887,3 L1886,3 L1885,3 L1884,3 L1883,3 L1882,3 L1881,3 L1880,3 L1879,3 L1878,3 L1877,3 L1876,3 L1875,3 L1874,3 L1873,3 L1872,3 L1871,3 L1870,3 L1869,3 L1868,3 L1867,3 L1866,3 L1865,3 L1864,3 L1863,3 L1862,3 L1861,3 L1860,3 L1859,3 L1858,3 L1857,3 L1856,3 L1855,3 L1854,3 L1853,3 L1852,3 L1851,3 L1850,3 L1849,3 L1848,3 L1847,3 L1846,3 L1845,3 L1844,3 L1843,3 L1842,3 L1841,3 L1840,3 L1839,3 L1838,3 L1837,3 L1836,3 L1835,3 L1834,3 L1833,3 L1832,3 L1831,3 L1830,3 L1829,3 L1828,3 L1827,3 L1826,3 L1825,3 L1824,3 L1823,3 L1822,3 L1821,3 L1820,3 L1819,3 L1818,3 L1817,3 L1816,3 L1815,3 L1814,3 L1813,3 L1812,3 L1811,3 L1810,3 L1809,3 L1808,3 L1807,3 L1806,3 L1805,3 L1804,3 L1803,3 L1802,3 L1801,3 L1800,3 L1799,3 L1798,3 L1797,3 L1796,3 L1795,3 L1794,3 L1793,3 L1792,3 L1791,3 L1790,3 L1789,3 L1788,3 L1787,3 L1786,3 L1785,3 L1784,3 L1783,3 L1782,3 L1781,3 L1780,3 L1779,3 L1778,3 L1777,3 L1776,3 L1775,3 L1774,3 L1773,3 L1772,3 L1771,3 L1770,3 L1769,3 L1768,3 L1767,3 L1766,3 L1765,3 L1764,3 L1763,3 L1762,3 L1761,3 L1760,3 L1759,3 L1758,2 L1757,2 L1756,3 L1755,3 L1754,2 L1753,2 L1752,2 L1751,2 L1750,2 L1749,2 L1748,2 L1747,2 L1746,2 L1745,3 L1744,3 L1743,3 L1742,3 L1741,3 L1740,3 L1739,3 L1738,3 L1737,3 L1736,3 L1735,3 L1734,3 L1733,3 L1732,3 L1731,3 L1730,3 L1729,3 L1728,3 L1727,3 L1726,3 L1725,3 L1724,3 L1723,3 L1722,3 L1721,3 L1720,3 L1719,3 L1718,3 L1717,3 L1716,3 L1715,3 L1714,3 L1713,3 L1712,3 L1711,3 L1710,3 L1709,3 L1708,3 L1707,3 L1706,2 L1705,2 L1704,3 L1703,3 L1702,3 L1701,3 L1700,3 L1699,3 L1698,3 L1697,3 L1696,3 L1695,3 L1694,3 L1693,3 L1692,3 L1691,3 L1690,3 L1689,3 L1688,3 L1687,3 L1686,3 L1685,3 L1684,3 L1683,3 L1682,3 L1681,3 L1680,3 L1679,3 L1678,3 L1677,3 L1676,3 L1675,3 L1674,3 L1673,3 L1672,3 L1671,3 L1670,3 L1669,3 L1668,3 L1667,3 L1666,3 L1665,3 L1664,3 L1663,3 L1662,3 L1661,3 L1660,3 L1659,3 L1658,3 L1657,3 L1656,3 L1655,3 L1654,3 L1653,3 L1652,3 L1651,3 L1650,3 L1649,3 L1648,3 L1647,3 L1646,3 L1645,3 L1644,3 L1643,3 L1642,3 L1641,3 L1640,3 L1639,3 L1638,3 L1637,3 L1636,3 L1635,3 L1634,3 L1633,3 L1632,3 L1631,3 L1630,3 L1629,3 L1628,3 L1627,3 L1626,3 L1625,3 L1624,3 L1623,3 L1622,3 L1621,3 L1620,3 L1619,3 L1618,3 L1617,3 L1616,3 L1615,3 L1614,3 L1613,3 L1612,3 L1611,3 L1610,2 L1609,2 L1608,3 L1607,3 L1606,3 L1605,3 L1604,3 L1603,3 L1602,3 L1601,3 L1600,3 L1599,3 L1598,3 L1597,3 L1596,3 L1595,3 L1594,3 L1593,3 L1592,2 L1591,2 L1590,3 L1589,3 L1588,3 L1587,2 L1586,2 L1585,2 L1584,2 L1583,2 L1582,2 L1581,2 L1580,2 L1579,2 L1578,2 L1577,2 L1576,2 L1575,2 L1574,2 L1573,2 L1572,2 L1571,2 L1570,2 L1569,2 L1568,2 L1567,2 L1566,2 L1565,2 L1564,2 L1563,2 L1562,2 L1561,2 L1560,2 L1559,2 L1558,2 L1557,2 L1556,2 L1555,2 L1554,2 L1553,2 L1552,2 L1551,2 L1550,2 L1549,2 L1548,1 L1547,1 L1546,1 L1545,2 L1544,2 L1543,2 L1542,3 L1541,3 L1540,3 L1539,2 L1538,2 L1537,2 L1536,2 L1535,2 L1534,2 L1533,2 L1532,3 L1531,3 L1530,3 L1529,3 L1528,3 L1527,3 L1526,3 L1525,3 L1524,3 L1523,3 L1522,3 L1521,3 L1520,3 L1519,3 L1518,3 L1517,3 L1516,3 L1515,3 L1514,3 L1513,3 L1512,3 L1511,3 L1510,3 L1509,3 L1508,3 L1507,3 L1506,2 L1505,1 L1504,1 L1503,2 L1502,3 L1501,3 L1500,3 L1499,3 L1498,3 L1497,3 L1496,3 L1495,3 L1494,3 L1493,3 L1492,3 L1491,3 L1490,3 L1489,3 L1488,3 L1487,3 L1486,3 L1485,3 L1484,3 L1483,3 L1482,3 L1481,3 L1480,3 L1479,3 L1478,3 L1477,3 L1476,3 L1475,3 L1474,3 L1473,3 L1472,3 L1471,3 L1470,3 L1469,3 L1468,3 L1467,3 L1466,3 L1465,3 L1464,3 L1463,3 L1462,3 L1461,3 L1460,3 L1459,3 L1458,3 L1457,3 L1456,3 L1455,3 L1454,3 L1453,3 L1452,2 L1451,3 L1450,3 L1449,3 L1448,3 L1447,3 L1446,3 L1445,3 L1444,3 L1443,3 L1442,3 L1441,3 L1440,3 L1439,3 L1438,3 L1437,3 L1436,3 L1435,3 L1434,3 L1433,3 L1432,2 L1431,2 L1430,2 L1429,2 L1428,2 L1427,3 L1426,3 L1425,2 L1424,2 L1423,2 L1422,2 L1421,3 L1420,3 L1419,3 L1418,3 L1417,3 L1416,3 L1415,3 L1414,3 L1413,3 L1412,3 L1411,3 L1410,3 L1409,3 L1408,3 L1407,2 L1406,2 L1405,3 L1404,3 L1403,3 L1402,3 L1401,3 L1400,3 L1399,3 L1398,3 L1397,3 L1396,3 L1395,3 L1394,3 L1393,3 L1392,3 L1391,3 L1390,3 L1389,3 L1388,3 L1387,3 L1386,3 L1385,3 L1384,3 L1383,3 L1382,3 L1381,3 L1380,3 L1379,3 L1378,3 L1377,3 L1376,3 L1375,3 L1374,3 L1373,3 L1372,3 L1371,3 L1370,3 L1369,3 L1368,3 L1367,3 L1366,3 L1365,3 L1364,3 L1363,3 L1362,3 L1361,3 L1360,3 L1359,3 L1358,3 L1357,3 L1356,3 L1355,3 L1354,3 L1353,3 L1352,3 L1351,3 L1350,3 L1349,3 L1348,3 L1347,3 L1346,3 L1345,3 L1344,3 L1343,3 L1342,3 L1341,3 L1340,3 L1339,3 L1338,3 L1337,3 L1336,3 L1335,3 L1334,3 L1333,3 L1332,3 L1331,3 L1330,3 L1329,3 L1328,3 L1327,3 L1326,3 L1325,3 L1324,3 L1323,3 L1322,3 L1321,3 L1320,3 L1319,3 L1318,3 L1317,3 L1316,3 L1315,3 L1314,3 L1313,3 L1312,3 L1311,3 L1310,3 L1309,3 L1308,3 L1307,3 L1306,3 L1305,3 L1304,3 L1303,3 L1302,3 L1301,3 L1300,3 L1299,3 L1298,3 L1297,3 L1296,3 L1295,3 L1294,3 L1293,3 L1292,3 L1291,3 L1290,3 L1289,3 L1288,3 L1287,3 L1286,3 L1285,3 L1284,3 L1283,3 L1282,3 L1281,3 L1280,3 L1279,3 L1278,3 L1277,3 L1276,3 L1275,3 L1274,3 L1273,3 L1272,3 L1271,3 L1270,3 L1269,3 L1268,3 L1267,3 L1266,3 L1265,3 L1264,3 L1263,3 L1262,3 L1261,3 L1260,3 L1259,3 L1258,3 L1257,3 L1256,3 L1255,3 L1254,3 L1253,3 L1252,3 L1251,3 L1250,3 L1249,3 L1248,3 L1247,3 L1246,3 L1245,3 L1244,3 L1243,3 L1242,3 L1241,3 L1240,3 L1239,3 L1238,3 L1237,3 L1236,3 L1235,3 L1234,3 L1233,3 L1232,3 L1231,3 L1230,3 L1229,3 L1228,3 L1227,2 L1226,2 L1225,2 L1224,2 L1223,2 L1222,2 L1221,2 L1220,2 L1219,2 L1218,2 L1217,1 L1216,1 L1215,1 L1214,1 L1213,1 L1212,1 L1211,1 L1210,1 L1209,1 L1208,1 L1207,1 L1206,1 L1205,1 L1204,1 L1203,1 L1202,1 L1201,1 L1200,1 L1199,1 L1198,1 L1197,1 L1196,1 L1195,1 L1194,1 L1193,1 L1192,1 L1191,1 L1190,1 L1189,2 L1188,2 L1187,2 L1186,2 L1185,2 L1184,2 L1183,2 L1182,2 L1181,2 L1180,2 L1179,2 L1178,2 L1177,2 L1176,2 L1175,2 L1174,2 L1173,2 L1172,2 L1171,2 L1170,2 L1169,2 L1168,2 L1167,2 L1166,2 L1165,2 L1164,2 L1163,2 L1162,2 L1161,2 L1160,2 L1159,2 L1158,2 L1157,2 L1156,2 L1155,2 L1154,2 L1153,2 L1152,2 L1151,2 L1150,2 L1149,2 L1148,2 L1147,2 L1146,2 L1145,2 L1144,2 L1143,2 L1142,2 L1141,3 L1140,3 L1139,3 L1138,3 L1137,3 L1136,3 L1135,3 L1134,3 L1133,3 L1132,3 L1131,3 L1130,3 L1129,3 L1128,3 L1127,3 L1126,3 L1125,3 L1124,3 L1123,3 L1122,3 L1121,3 L1120,3 L1119,3 L1118,3 L1117,3 L1116,3 L1115,3 L1114,3 L1113,3 L1112,3 L1111,3 L1110,3 L1109,3 L1108,3 L1107,3 L1106,3 L1105,3 L1104,3 L1103,3 L1102,3 L1101,3 L1100,3 L1099,3 L1098,3 L1097,3 L1096,3 L1095,3 L1094,3 L1093,3 L1092,3 L1091,3 L1090,3 L1089,3 L1088,3 L1087,3 L1086,3 L1085,3 L1084,3 L1083,3 L1082,3 L1081,3 L1080,3 L1079,3 L1078,3 L1077,3 L1076,3 L1075,3 L1074,3 L1073,3 L1072,3 L1071,3 L1070,3 L1069,3 L1068,3 L1067,3 L1066,3 L1065,3 L1064,3 L1063,3 L1062,3 L1061,3 L1060,3 L1059,4 L1058,4 L1057,4 L1056,4 L1055,3 L1054,3 L1053,3 L1052,3 L1051,3 L1050,3 L1049,3 L1048,3 L1047,3 L1046,4 L1045,3 L1044,3 L1043,3 L1042,3 L1041,3 L1040,3 L1039,3 L1038,3 L1037,3 L1036,3 L1035,3 L1034,3 L1033,3 L1032,3 L1031,3 L1030,3 L1029,3 L1028,4 L1027,4 L1026,4 L1025,4 L1024,3 L1023,3 L1022,3 L1021,3 L1020,3 L1019,3 L1018,4 L1017,4 L1016,4 L1015,4 L1014,4 L1013,4 L1012,4 L1011,4 L1010,4 L1009,4 L1008,4 L1007,4 L1006,4 L1005,4 L1004,4 L1003,4 L1002,4 L1001,4 L1000,4 L999,4 L998,4 L997,4 L996,4 L995,4 L994,4 L993,4 L992,4 L991,4 L990,4 L989,4 L988,4 L987,4 L986,4 L985,4 L984,4 L983,4 L982,4 L981,4 L980,4 L979,4 L978,4 L977,4 L976,4 L975,4 L974,4 L973,4 L972,4 L971,4 L970,4 L969,4 L968,4 L967,4 L966,4 L965,4 L964,4 L963,4 L962,4 L961,4 L960,4 L959,4 L958,4 L957,4 L956,4 L955,4 L954,4 L953,4 L952,4 L951,4 L950,4 L949,4 L948,4 L947,4 L946,4 L945,4 L944,4 L943,4 L942,4 L941,4 L940,4 L939,4 L938,4 L937,4 L936,4 L935,4 L934,4 L933,4 L932,4 L931,4 L930,4 L929,4 L928,4 L927,4 L926,4 L925,4 L924,4 L923,4 L922,4 L921,4 L920,4 L919,4 L918,4 L917,4 L916,4 L915,3 L914,4 L913,4 L912,4 L911,4 L910,4 L909,4 L908,4 L907,4 L906,4 L905,4 L904,4 L903,4 L902,4 L901,4 L900,4 L899,4 L898,4 L897,4 L896,4 L895,4 L894,4 L893,4 L892,4 L891,4 L890,4 L889,4 L888,4 L887,4 L886,4 L885,4 L884,4 L883,4 L882,4 L881,4 L880,4 L879,4 L878,4 L877,4 L876,4 L875,4 L874,4 L873,4 L872,4 L871,4 L870,4 L869,4 L868,4 L867,4 L866,4 L865,4 L864,4 L863,4 L862,4 L861,4 L860,4 L859,4 L858,4 L857,4 L856,4 L855,4 L854,4 L853,4 L852,4 L851,4 L850,4 L849,4 L848,4 L847,4 L846,4 L845,4 L844,4 L843,4 L842,4 L841,4 L840,4 L839,4 L838,4 L837,4 L836,4 L835,4 L834,4 L833,4 L832,4 L831,4 L830,4 L829,4 L828,4 L827,4 L826,4 L825,4 L824,4 L823,4 L822,4 L821,4 L820,4 L819,4 L818,4 L817,4 L816,4 L815,4 L814,4 L813,4 L812,4 L811,4 L810,4 L809,4 L808,4 L807,4 L806,4 L805,4 L804,4 L803,4 L802,4 L801,4 L800,4 L799,4 L798,4 L797,4 L796,4 L795,4 L794,4 L793,3 L792,2 L791,2 L790,2 L789,2 L788,2 L787,3 L786,4 L785,4 L784,4 L783,4 L782,4 L781,4 L780,4 L779,4 L778,4 L777,4 L776,4 L775,4 L774,4 L773,4 L772,4 L771,4 L770,4 L769,4 L768,4 L767,4 L766,4 L765,4 L764,4 L763,4 L762,4 L761,4 L760,4 L759,4 L758,4 L757,4 L756,4 L755,4 L754,4 L753,4 L752,4 L751,4 L750,4 L749,4 L748,4 L747,4 L746,4 L745,4 L744,4 L743,4 L742,4 L741,4 L740,4 L739,4 L738,4 L737,4 L736,4 L735,4 L734,4 L733,4 L732,4 L731,4 L730,4 L729,4 L728,4 L727,4 L726,4 L725,4 L724,4 L723,4 L722,4 L721,4 L720,4 L719,4 L718,4 L717,4 L716,4 L715,4 L714,4 L713,3 L712,3 L711,4 L710,4 L709,4 L708,3 L707,3 L706,4 L705,4 L704,4 L703,4 L702,4 L701,4 L700,4 L699,4 L698,3 L697,3 L696,3 L695,3 L694,3 L693,3 L692,3 L691,3 L690,3 L689,3 L688,3 L687,3 L686,3 L685,3 L684,3 L683,3 L682,3 L681,3 L680,3 L679,3 L678,3 L677,3 L676,3 L675,3 L674,3 L673,3 L672,3 L671,3 L670,3 L669,3 L668,3 L667,3 L666,3 L665,3 L664,3 L663,3 L662,3 L661,3 L660,3 L659,3 L658,4 L657,4 L656,4 L655,4 L654,3 L653,2 L652,2 L651,2 L650,3 L649,3 L648,3 L647,3 L646,3 L645,3 L644,3 L643,3 L642,3 L641,3 L640,3 L639,3 L638,3 L637,3 L636,3 L635,3 L634,3 L633,3 L632,3 L631,3 L630,3 L629,3 L628,3 L627,3 L626,3 L625,3 L624,3 L623,3 L622,3 L621,3 L620,3 L619,3 L618,4 L617,4 L616,4 L615,3 L614,3 L613,3 L612,3 L611,3 L610,4 L609,4 L608,4 L607,4 L606,3 L605,3 L604,4 L603,4 L602,4 L601,4 L600,4 L599,3 L598,3 L597,4 L596,4 L595,4 L594,4 L593,4 L592,4 L591,4 L590,4 L589,4 L588,4 L587,4 L586,4 L585,4 L584,4 L583,4 L582,4 L581,4 L580,4 L579,4 L578,4 L577,4 L576,4 L575,4 L574,4 L573,4 L572,4 L571,4 L570,4 L569,4 L568,4 L567,4 L566,4 L565,4 L564,3 L563,3 L562,4 L561,4 L560,4 L559,4 L558,4 L557,4 L556,4 L555,4 L554,4 L553,4 L552,4 L551,4 L550,4 L549,4 L548,4 L547,4 L546,4 L545,4 L544,4 L543,4 L542,4 L541,4 L540,4 L539,4 L538,4 L537,4 L536,4 L535,4 L534,4 L533,4 L532,4 L531,4 L530,4 L529,4 L528,4 L527,4 L526,4 L525,4 L524,4 L523,4 L522,4 L521,4 L520,4 L519,4 L518,4 L517,4 L516,4 L515,4 L514,4 L513,4 L512,4 L511,4 L510,4 L509,4 L508,4 L507,4 L506,4 L505,4 L504,4 L503,4 L502,4 L501,4 L500,4 L499,4 L498,4 L497,4 L496,4 L495,4 L494,4 L493,4 L492,4 L491,4 L490,4 L489,4 L488,4 L487,4 L486,4 L485,4 L484,4 L483,4 L482,4 L481,4 L480,4 L479,4 L478,4 L477,4 L476,4 L475,4 L474,4 L473,4 L472,4 L471,4 L470,4 L469,4 L468,4 L467,4 L466,4 L465,4 L464,4 L463,4 L462,4 L461,4 L460,4 L459,4 L458,4 L457,4 L456,4 L455,4 L454,4 L453,4 L452,4 L451,4 L450,4 L449,4 L448,4 L447,4 L446,4 L445,4 L444,4 L443,4 L442,4 L441,4 L440,4 L439,4 L438,4 L437,4 L436,4 L435,4 L434,4 L433,4 L432,5 L431,5 L430,4 L429,4 L428,4 L427,4 L426,5 L425,5 L424,5 L423,4 L422,4 L421,4 L420,4 L419,4 L418,4 L417,4 L416,4 L415,4 L414,4 L413,4 L412,4 L411,4 L410,4 L409,4 L408,5 L407,5 L406,4 L405,4 L404,4 L403,5 L402,5 L401,5 L400,5 L399,5 L398,5 L397,5 L396,5 L395,5 L394,5 L393,4 L392,4 L391,4 L390,4 L389,4 L388,5 L387,5 L386,5 L385,5 L384,5 L383,5 L382,5 L381,5 L380,5 L379,5 L378,5 L377,5 L376,5 L375,5 L374,5 L373,4 L372,4 L371,5 L370,5 L369,4 L368,4 L367,4 L366,4 L365,5 L364,5 L363,5 L362,5 L361,5 L360,5 L359,5 L358,5 L357,5 L356,5 L355,5 L354,5 L353,5 L352,5 L351,5 L350,5 L349,5 L348,5 L347,5 L346,5 L345,5 L344,5 L343,5 L342,5 L341,5 L340,5 L339,5 L338,5 L337,5 L336,5 L335,5 L334,5 L333,5 L332,5 L331,5 L330,5 L329,5 L328,5 L327,5 L326,5 L325,5 L324,5 L323,5 L322,5 L321,5 L320,5 L319,5 L318,5 L317,5 L316,5 L315,5 L314,5 L313,5 L312,5 L311,5 L310,5 L309,5 L308,5 L307,5 L306,5 L305,5 L304,5 L303,5 L302,5 L301,5 L300,5 L299,5 L298,5 L297,5 L296,5 L295,5 L294,5 L293,5 L292,5 L291,5 L290,5 L289,5 L288,5 L287,5 L286,5 L285,5 L284,5 L283,5 L282,5 L281,5 L280,5 L279,5 L278,5 L277,5 L276,5 L275,6 L274,6 L273,6 L272,6 L271,6 L270,6 L269,6 L268,6 L267,5 L266,5 L265,6 L264,6 L263,6 L262,6 L261,6 L260,6 L259,6 L258,6 L257,6 L256,6 L255,6 L254,6 L253,6 L252,6 L251,6 L250,6 L249,6 L248,6 L247,6 L246,6 L245,6 L244,6 L243,6 L242,6 L241,6 L240,6 L239,6 L238,6 L237,6 L236,6 L235,6 L234,6 L233,6 L232,6 L231,6 L230,6 L229,6 L228,6 L227,6 L226,6 L225,6 L224,6 L223,6 L222,6 L221,6 L220,6 L219,6 L218,6 L217,6 L216,6 L215,6 L214,6 L213,6 L212,6 L211,6 L210,6 L209,6 L208,6 L207,6 L206,6 L205,6 L204,6 L203,6 L202,6 L201,6 L200,6 L199,7 L198,7 L197,7 L196,7 L195,7 L194,6 L193,5 L192,5 L191,6 L190,6 L189,6 L188,6 L187,6 L186,6 L185,6 L184,6 L183,6 L182,6 L181,6 L180,6 L179,6 L178,6 L177,6 L176,6 L175,6 L174,6 L173,6 L172,6 L171,6 L170,6 L169,6 L168,6 L167,6 L166,6 L165,6 L164,6 L163,6 L162,6 L161,6 L160,6 L159,6 L158,6 L157,6 L156,6 L155,6 L154,7 L153,7 L152,7 L151,7 L150,7 L149,7 L148,7 L147,7 L146,7 L145,7 L144,7 L143,7 L142,7 L141,7 L140,7 L139,7 L138,7 L137,7 L136,7 L135,7 L134,7 L133,7 L132,7 L131,7 L130,7 L129,7 L128,7 L127,7 L126,7 L125,7 L124,7 L123,7 L122,7 L121,7 L120,7 L119,7 L118,7 L117,7 L116,7 L115,7 L114,7 L113,7 L112,7 L111,7 L110,7 L109,6 L108,6 L107,6 L106,6 L105,6 L104,6 L103,6 L102,6 L101,6 L100,6 L99,6 L98,6 L97,6 L96,6 L95,6 L94,6 L93,6 L92,6 L91,6 L90,6 L89,6 L88,6 L87,6 L86,6 L85,6 L84,6 L83,6 L82,6 L81,6 L80,6 L79,6 L78,6 L77,6 L76,6 L75,6 L74,6 L73,6 L72,6 L71,6 L70,6 L69,6 L68,6 L67,6 L66,6 L65,6 L64,6 L63,6 L62,6 L61,6 L60,6 L59,6 L58,6 L57,6 L56,6 L55,6 L54,7 L53,7 L52,7 L51,7 L50,7 L49,7 L48,7 L47,7 L46,7 L45,7 L44,7 L43,7 L42,7 L41,7 L40,7 L39,7 L38,7 L37,7 L36,7 L35,7 L34,7 L33,7 L32,7 L31,7 L30,7 L29,7 L28,7 L27,7 L26,8 L25,8 L24,8 L23,8 L22,8 L21,8 L20,8 L19,8 L18,8 L17,8 L16,8 L15,8 L14,8 L13,8 L12,8 L11,8 L10,9 L9,9 L8,9 L7,9 L6,9 L5,9 L4,9 L3,9 L2,8 L3,7 L2,6 L1,5 L0,4 L0,4 L1,5 L2,6 L3,7 L2,8 L3,9 L2,10 L1,11 L0,12 L1,13 L2,14 L3,15 L3,16 L3,17 L3,18 L3,19 L3,20 L3,21 L2,22 L2,23 L1,24 L1,25 L1,26 L1,27 L1,28 L1,29 L1,30 L1,31 L1,32 L1,33 L1,34 L1,35 L1,36 L1,37 L1,38 L1,39 L1,40 L1,41 L2,42 L3,43 L3,44 L3,45 L2,46 L2,47 L2,48 L2,49 L1,50 L1,51 L1,52 L2,53 L2,54 L2,55 L2,56 L2,57 L1,58 L0,59 L1,60 L1,61 L1,62 L2,63 L2,64 L2,65 L2,66 L2,67 L2,68 L2,69 L2,70 L2,71 L2,72 L1,73 L1,74 L1,75 L1,76 L1,77 L1,78 L1,79 L1,80 L1,81 L2,82 L1,83 L1,84 L1,85 L1,86 L1,87 L1,88 L1,89 L1,90 L1,91 L1,92 L2,93 L2,94 L3,95 L3,96 L3,97 L3,98 L2,99 L2,100 L2,101 L1,102 L1,103 L1,104 L1,105 L2,106 L2,107 L2,108 L2,109 L2,110 L2,111 L2,112 L1,113 L1,114 L1,115 L2,116 L2,117 L2,118 L2,119 L1,120 L2,121 L2,122 L1,123 L1,124 L2,125 L3,126 L3,127 L2,128 L1,129 L1,130 L1,131 L1,132 L1,133 L1,134 L2,135 L2,136 L1,137 L1,138 L1,139 L1,140 L1,141 L1,142 L1,143 L1,144 L1,145 L1,146 L1,147 L1,148 L1,149 L2,150 L2,151 L2,152 L2,153 L2,154 L2,155 L2,156 L2,157 L2,158 L2,159 L2,160 L2,161 L2,162 L1,163 L1,164 L1,165 L1,166 L1,167 L1,168 L1,169 L1,170 L1,171 L1,172 L1,173 L2,174 L2,175 L2,176 L1,177 L1,178 L1,179 L1,180 L1,181 L2,182 L3,183 L3,184 L3,185 L3,186 L3,187 L3,188 L3,189 L3,190 L3,191 L3,192 L3,193 L2,194 L2,195 L2,196 L2,197 L2,198 L2,199 L2,200 L2,201 L2,202 L2,203 L2,204 L3,205 L3,206 L3,207 L2,208 L2,209 L2,210 L2,211 L2,212 L2,213 L2,214 L2,215 L3,216 L3,217 L3,218 L3,219 L3,220 L3,221 L3,222 L3,223 L3,224 L2,225 L1,226 L2,227 L2,228 L2,229 L2,230 L2,231 L2,232 L2,233 L2,234 L2,235 L2,236 L2,237 L2,238 L2,239 L2,240 L2,241 L2,242 L2,243 L2,244 L2,245 L2,246 L2,247 L2,248 L2,249 L2,250 L2,251 L2,252 L2,253 L2,254 L2,255 L3,256 L3,257 L3,258 L3,259 L2,260 L1,261 L1,262 L1,263 L1,264 L1,265 L1,266 L1,267 L1,268 L1,269 L2,270 L2,271 L2,272 L2,273 L2,274 L2,275 L2,276 L2,277 L2,278 L2,279 L2,280 L2,281 L2,282 L2,283 L2,284 L2,285 L2,286 L1,287 L1,288 L1,289 L1,290 L1,291 L2,292 L2,293 L2,294 L2,295 L2,296 L2,297 L2,298 L2,299 L2,300 L2,301 L1,302 L1,303 L1,304 L1,305 L1,306 L1,307 L1,308 L1,309 L1,310 L1,311 L1,312 L1,313 L1,314 L1,315 L1,316 L1,317 L1,318 L1,319 L1,320 L1,321 L1,322 L1,323 L1,324 L1,325 L1,326 L1,327 L1,328 L1,329 L1,330 L1,331 L1,332 L1,333 L1,334 L1,335 L1,336 L1,337 L1,338 L1,339 L1,340 L1,341 L1,342 L1,343 L1,344 L1,345 L1,346 L1,347 L1,348 L1,349 L1,350 L1,351 L1,352 L1,353 L1,354 L1,355 L1,356 L1,357 L1,358 L1,359 L2,360 L2,361 L2,362 L1,363 L1,364 L1,365 L1,366 L1,367 L1,368 L1,369 L1,370 L1,371 L1,372 L1,373 L1,374 L1,375 L1,376 L1,377 L1,378 L2,379 L2,380 L2,381 L2,382 L2,383 L2,384 L2,385 L2,386 L2,387 L2,388 L1,389 L1,390 L1,391 L1,392 L1,393 L1,394 L1,395 L1,396 L2,397 L2,398 L2,399 L2,400 L2,401 L2,402 L2,403 L2,404 L2,405 L2,406 L1,407 L1,408 L1,409 L2,410 L2,411 L1,412 L1,413 L1,414 L1,415 L1,416 L1,417 L1,418 L1,419 L2,420 L2,421 L2,422 L1,423 L1,424 L1,425 L1,426 L1,427 L1,428 L1,429 L1,430 L1,431 L1,432 L1,433 L1,434 L1,435 L2,436 L2,437 L2,438 L1,439 L1,440 L1,441 L1,442 L1,443 L1,444 L1,445 L1,446 L1,447 L1,448 L1,449 L1,450 L1,451 L1,452 L1,453 L1,454 L1,455 L1,456 L1,457 L1,458 L1,459 L1,460 L1,461 L1,462 L1,463 L1,464 L1,465 L1,466 L1,467 L1,468 L1,469 L1,470 L1,471 L1,472 L1,473 L1,474 L1,475 L1,476 L1,477 L1,478 L1,479 L1,480 L1,481 L1,482 L1,483 L1,484 L1,485 L1,486 L1,487 L1,488 L1,489 L1,490 L1,491 L1,492 L1,493 L1,494 L1,495 L1,496 L1,497 L1,498 L1,499 L1,500 L1,501 L1,502 L1,503 L1,504 L2,505 L2,506 L2,507 L2,508 L2,509 L1,510 L1,511 L1,512 L1,513 L1,514 L1,515 L2,516 L2,517 L2,518 L1,519 L1,520 L1,521 L1,522 L1,523 L1,524 L1,525 L1,526 L1,527 L1,528 L1,529 L1,530 L1,531 L1,532 L1,533 L1,534 L1,535 L1,536 L1,537 L1,538 L1,539 L1,540 L1,541 L2,542 L2,543 L2,544 L2,545 L2,546 L1,547 L1,548 L1,549 L1,550 L1,551 L1,552 L1,553 L1,554 L1,555 L1,556 L1,557 L1,558 L1,559 L1,560 L1,561 L1,562 L1,563 L1,564 L1,565 L1,566 L1,567 L1,568 L1,569 L1,570 L1,571 L1,572 L1,573 L1,574 L1,575 L1,576 L1,577 L1,578 L1,579 L1,580 L1,581 L1,582 L1,583 L1,584 L1,585 L1,586 L1,587 L1,588 L1,589 L1,590 L1,591 L1,592 L1,593 L1,594 L1,595 L1,596 L1,597 L1,598 L1,599 L1,600 L1,601 L1,602 L1,603 L1,604 L1,605 L1,606 L1,607 L1,608 L1,609 L1,610 L1,611 L1,612 L1,613 L1,614 L1,615 L1,616 L1,617 L1,618 L1,619 L1,620 L1,621 L1,622 L1,623 L1,624 L1,625 L1,626 L1,627 L1,628 L1,629 L1,630 L1,631 L1,632 L1,633 L1,634 L1,635 L1,636 L1,637 L1,638 L1,639 L2,640 L3,640 L4,641 L5,641 L6,642 L6,643 L6,644 L6,645 L5,646 L5,647 L4,648 L4,649 L4,650 L3,651 L2,652 L1,653 L1,654 L1,655 L1,656 L1,657 L1,658 L1,659 L1,660 L1,661 L1,662 L1,663 L1,664 L1,665 L1,666 L1,667 L1,668 L1,669 L1,670 L1,671 L1,672 L1,673 L1,674 L1,675 L1,676 L1,677 L1,678 L1,679 L1,680 L1,681 L1,682 L1,683 L1,684 L1,685 L1,686 L1,687 L1,688 L1,689 L1,690 L1,691 L1,692 L1,693 L1,694 L1,695 L1,696 L1,697 L1,698 L1,699 L1,700 L1,701 L1,702 L1,703 L1,704 L1,705 L1,706 L2,707 L2,708 L2,709 L2,710 L3,711 L4,712 L4,713 L4,714 L5,715 L5,716 L5,717 L6,718 L6,719 L6,720 L6,721 L6,722 L6,723 L7,724 L7,725 L7,726 L7,727 L7,728 L7,729 L7,730 L7,731 L8,732 L8,733 L8,734 L9,735 L9,736 L9,737 L10,738 L10,739 L10,740 L10,741 L10,742 L10,743 L10,744 L11,745 L11,746 L11,747 L11,748 L11,749 L11,750 L11,751 L11,752 L11,753 L12,754 L12,755 L12,756 L12,757 L13,758 L13,759 L13,760 L13,761 L14,762 L14,763 L14,764 L14,765 L14,766 L14,767 L14,768 L13,769 L12,770 L11,771 L10,772 L9,772 L8,773 L7,774 L6,775 L5,775 L4,776 L4,777 L4,778 L4,779 L4,780 L4,781 L3,782 L2,783 L1,784 L1,785 L1,786 L1,787 L1,788 L1,789 L1,790 L1,791 L1,792 L1,793 L1,794 L1,795 L1,796 L1,797 L1,798 L1,799 L1,800 L1,801 L1,802 L1,803 L1,804 L1,805 L1,806 L1,807 L1,808 L1,809 L1,810 L1,811 L2,812 L3,813 L3,814 L3,815 L3,816 L3,817 L4,818 L4,819 L4,819 L4,820 L4,821 L3,822 L3,823 L2,824 L1,825 L1,826 L1,827 L1,828 L1,829 L1,830 L1,831 L1,832 L1,833 L1,834 L1,835 L1,836 L1,837 L1,838 L1,839 L1,840 L1,841 L1,842 L1,843 L1,844 L1,845 L1,846 L1,847 L1,848 L1,849 L1,850 L1,851 L1,852 L1,853 L1,854 L1,855 L1,856 L1,857 L1,858 L1,859 L1,860 L1,861 L1,862 L1,863 L1,864 L1,865 L1,866 L1,867 L1,868 L1,869 L1,870 L1,871 L1,872 L1,873 L1,874 L1,875 L1,876 L1,877 L1,878 L1,879 L1,880 L1,881 L1,882 L1,883 L1,884 L1,885 L1,886 L1,887 L1,888 L1,889 L1,890 L1,891 L1,892 L1,893 L1,894 L1,895 L1,896 L1,897 L1,898 L1,899 L1,900 L1,901 L1,902 L1,903 L1,904 L1,905 L1,906 L1,907 L1,908 L1,909 L1,910 L1,911 L1,912 L1,913 L1,914 L1,915 L1,916 L1,917 L1,918 L1,919 L1,920 L1,921 L1,922 L1,923 L1,924 L1,925 L1,926 L1,927 L1,928 L1,929 L1,930 L1,931 L1,932 L1,933 L1,934 L1,935 L1,936 L1,937 L1,938 L1,939 L1,940 L1,941 L1,942 L1,943 L1,944 L1,945 L1,946 L1,947 L1,948 L1,949 L1,950 L1,951 L1,952 L1,953 L1,954 L1,955 L1,956 L1,957 L1,958 L1,959 L1,960 L1,961 L1,962 L0,963 L0,963 L1,963 L1,964 L1,965 L1,966 L1,967 L1,968 L1,969 L1,970 L1,971 L1,972 L1,973 L1,974 L1,975 L1,976 L0,977 L1,978 L2,979 L3,980 L4,981 L4,982 L4,983 L4,984 L4,985 L4,986 L4,987 L4,988 L3,989 L3,990 L3,991 L3,992 L3,993 L4,994 L4,995 L4,996 L4,997 L5,998 L5,999 L5,1000 L6,1001 L6,1002 L5,1003 L5,1004 L5,1005 L5,1006 L4,1007 L4,1008 L3,1009 L2,1009 L1,1010 L1,1011 L1,1012 L1,1013 L1,1014 L1,1015 L1,1016 L2,1017 L1,1018 L2,1019 L1,1020 L2,1021 L2,1022 L2,1023 L1,1024 L1,1025 L1,1026 L1,1027 L1,1028 L1,1029 L0,1030 L1,1031 L2,1032 L2,1033 L3,1034 L3,1035 L3,1036 L2,1037 L2,1038 L3,1039 L2,1040 L2,1041 L3,1042 L4,1043 L5,1044 L5,1045 L5,1046 L5,1047 L5,1048 L4,1049 L4,1049 L3,1050 L2,1050 L1,1050 L1,1051 L1,1052 L1,1053 L1,1054 L1,1055 L1,1056 L1,1057 L1,1058 L1,1059 L1,1060 L1,1061 L2,1062 L3,1063 L4,1064 L5,1064 L6,1064 L7,1065 L8,1066 L9,1067 L9,1068 L9,1069 L9,1070 L8,1071 L8,1072 L8,1073 L8,1074 L8,1075 L9,1076 L10,1076 L11,1076 L12,1077 L13,1078 L14,1079 L14,1080 L15,1081 L16,1082 L17,1083 L17,1084 L18,1085 L19,1086 L19,1087 L19,1088 L19,1089 L18,1090 L17,1091 L17,1092 L17,1093 L17,1094 L16,1095 L15,1096 L15,1097 L15,1098 L14,1099 L13,1100 L12,1101 L12,1102 L12,1103 L12,1104 L12,1105 L12,1106 L12,1107 L12,1108 L12,1109 L11,1110 L11,1111 L11,1112 L11,1113 L11,1114 L11,1115 L11,1116 L11,1117 L11,1118 L10,1119 L10,1120 L9,1121 L8,1122 L7,1123 L6,1124 L6,1125 L6,1126 L6,1127 L6,1128 L6,1129 L6,1130 L6,1131 L6,1132 L7,1133 L8,1134 L9,1135 L9,1136 L9,1137 L8,1138 L7,1139 L6,1140 L5,1141 L5,1142 L5,1143 L5,1144 L5,1145 L6,1146 L5,1147 L5,1148 L5,1149 L5,1150 L6,1151 L7,1152 L8,1153 L9,1154 L9,1155 L9,1156 L10,1157 L11,1158 L12,1159 L12,1160 L12,1161 L12,1162 L12,1163 L11,1164 L11,1165 L11,1166 L10,1167 L10,1168 L10,1169 L10,1170 L10,1171 L9,1172 L9,1173 L9,1174 L9,1175 L9,1176 L9,1177 L10,1178 L10,1179 L11,1180 L12,1181 L13,1182 L14,1183 L14,1183 L13,1184 L14,1184 L15,1185 L16,1186 L17,1187 L18,1188 L19,1189 L19,1190 L19,1191 L19,1192 L19,1193 L19,1194 L19,1195 L19,1196 L19,1197 L20,1198 L20,1199 L20,1200 L19,1201 L19,1202 L19,1203 L19,1204 L19,1205 L20,1206 L19,1207 L20,1208 L21,1209 L21,1210 L21,1211 L20,1212 L20,1213 L20,1214 L20,1215 L20,1216 L20,1217 L21,1218 L22,1219 L22,1220 L22,1221 L22,1222 L22,1223 L22,1224 L22,1225 L23,1226 L23,1227 L24,1228 L23,1228 L22,1229 L21,1230 L20,1231 L19,1232 L18,1233 L17,1234 L18,1235 L19,1236 L19,1237 L18,1238 L18,1239 L18,1240 L17,1241 L17,1242 L17,1243 L17,1244 L17,1245 L16,1246 L15,1247 L15,1248 L15,1249 L15,1250 L15,1251 L15,1252 L15,1253 L16,1254 L17,1254 L18,1255 L18,1256 L18,1257 L17,1258 L16,1259 L16,1260 L16,1261 L16,1262 L16,1263 L16,1264 L16,1265 L15,1266 L15,1267 L15,1268 L15,1269 L14,1270 L13,1271 L13,1272 L13,1273 L12,1274 L11,1275 L11,1276 L11,1277 L11,1278 L11,1279 L11,1280 L10,1281 L10,1282 L10,1283 L10,1284 L10,1285 L10,1286 L10,1287 L9,1288 L8,1289 L8,1290 L8,1291 L8,1292 L8,1293 L8,1294 L8,1295 L8,1296 L8,1297 L8,1298 L7,1299 L7,1300 L6,1301 L6,1302 L5,1303 L5,1304 L5,1305 L4,1306 L3,1307 L2,1308 L2,1309 L2,1310 L2,1311 L2,1312 L2,1313 L2,1314 L3,1315 L4,1316 L4,1317 L3,1318 L3,1319 L4,1320 L4,1321 L4,1322 L4,1323 L4,1324 L5,1325 L6,1326 L7,1326 L8,1327 L9,1328 L10,1329 L11,1330 L11,1331 L11,1332 L11,1333 L11,1334 L10,1335 L9,1336 L9,1336 L10,1336 L9,1337 L8,1338 L7,1339 L6,1340 L5,1341 L4,1341 L3,1341 L2,1342 L1,1343 L1,1344 L1,1345 L1,1346 L1,1347 L1,1348 L1,1349 L1,1350 L1,1351 L1,1352 L1,1353 L1,1354 L1,1355 L1,1356 L1,1357 L2,1358 L3,1359 L3,1360 L3,1361 L3,1362 L3,1363 L3,1364 L3,1365 L2,1366 L1,1367 L1,1368 L1,1369 L1,1370 L1,1371 L1,1372 L1,1373 L1,1374 L1,1375 L1,1376 L1,1377 L1,1378 L1,1379 L1,1380 L2,1381 L2,1382 L2,1383 L2,1384 L2,1385 L2,1386 L2,1387 L1,1388 L0,1389 L1,1389 L2,1390 L2,1391 L3,1392 L4,1393 L4,1394 L5,1395 L5,1396 L6,1397 L7,1398 L7,1399 L6,1400 L5,1401 L4,1402 L4,1403 L3,1404 L2,1405 L1,1406 L1,1407 L1,1408 L1,1409 L1,1410 L1,1411 L1,1412 L1,1413 L1,1414 L1,1415 L1,1416 L1,1417 L1,1418 L1,1419 L1,1420 L1,1421 L1,1422 L1,1423 L1,1424 L1,1425 L1,1426 L1,1427 L1,1428 L1,1429 L1,1430 L1,1431 L1,1432 L1,1433 L1,1434 L1,1435 L1,1436 L1,1437 L1,1438 L1,1439 L1,1440 L1,1441 L1,1442 L1,1443 L1,1444 L1,1445 L1,1446 L1,1447 L2,1448 L3,1449 L4,1450 L4,1451 L5,1452 L5,1453 L5,1454 L4,1455 L3,1456 L2,1457 L1,1458 L1,1459 L1,1460 L2,1461 L3,1462 L4,1463 L5,1464 L5,1465 L5,1466 L5,1467 L4,1468 L4,1469 L4,1470 L3,1471 L3,1472 L3,1473 L2,1474 L2,1475 L3,1476 L4,1477 L5,1478 L6,1479 L7,1480 L7,1481 L7,1482 L6,1483 L5,1484 L4,1485 L4,1486 L5,1487 L6,1488 L7,1488 L8,1489 L8,1490 L8,1491 L8,1492 L8,1493 L8,1494 L8,1495 L8,1496 L8,1497 L8,1498 L7,1499 L7,1500 L8,1501 L8,1502 L8,1503 L9,1504 L10,1505 L11,1506 L11,1507 L11,1508 L11,1509 L12,1510 L13,1511 L14,1512 L15,1513 L15,1514 L16,1515 L16,1516 L16,1517 L16,1518 L16,1519 L15,1520 L14,1521 L13,1522 L13,1523 L13,1524 L12,1525 L12,1526 L12,1527 L12,1528 L12,1529 L12,1530 L12,1531 L12,1532 L13,1533 L13,1534 L13,1535 L13,1536 L13,1537 L12,1537 L11,1538 L11,1539 L11,1540 L11,1541 L12,1542 L12,1543 L11,1544 L11,1545 L11,1546 L11,1547 L12,1548 L13,1549 L13,1550 L13,1551 L14,1552 L15,1553 L15,1554 L15,1555 L15,1556 L15,1557 L15,1558 L15,1559 L16,1560 L16,1561 L17,1562 L18,1563 L18,1564 L18,1565 L18,1566 L18,1567 L19,1568 L20,1569 L21,1570 L21,1571 L21,1572 L21,1573 L21,1574 L20,1575 L19,1576 L19,1577 L20,1578 L20,1579 L20,1580 L21,1581 L20,1582 L19,1583 L18,1584 L17,1585 L17,1586 L17,1587 L17,1588 L17,1589 L18,1590 L18,1591 L18,1592 L18,1593 L19,1594 L20,1595 L21,1596 L21,1597 L20,1598 L19,1598 L18,1598 L17,1599 L16,1600 L15,1601 L15,1602 L15,1603 L14,1604 L13,1605 L13,1606 L13,1607 L13,1608 L14,1609 L13,1610 L13,1611 L13,1612 L13,1613 L12,1614 L11,1615 L10,1616 L9,1617 L8,1618 L7,1619 L6,1620 L6,1621 L6,1622 L5,1623 L4,1623 L3,1624 L3,1625 L3,1626 L3,1627 L3,1628 L4,1629 L5,1630 L5,1631 L5,1632 L5,1633 L5,1634 L5,1635 L5,1636 L5,1637 L5,1638 L5,1639 L4,1640 L3,1641 L2,1641 L1,1642 L1,1643 L1,1644 L1,1645 L1,1646 L2,1647 L2,1648 L1,1649 L1,1650 L1,1651 L1,1652 L2,1653 L1,1654 L2,1655 L2,1656 L2,1657 L3,1658 L2,1659 L1,1660 L1,1661 L0,1662 L0,1662 L1,1662 L1,1663 L1,1664 L1,1665 L1,1666 L1,1667 L1,1668 L0,1669 L1,1670 L2,1671 L2,1672 L3,1673 L3,1674 L2,1675 L1,1676 L1,1677 L1,1678 L1,1679 L1,1680 L2,1681 L1,1682 L1,1683 L1,1684 L1,1685 L1,1686 L2,1687 L3,1688 L4,1689 L5,1690 L6,1691 L7,1692 L8,1693 L8,1694 L9,1695 L9,1696 L9,1697 L9,1698 L10,1699 L11,1700 L12,1701 L12,1702 L12,1703 L12,1704 L12,1705 L12,1706 L12,1707 L12,1708 L12,1709 L11,1710 L10,1710 L9,1711 L8,1712 L7,1713 L8,1714 L9,1715 L9,1716 L9,1717 L9,1718 L9,1719 L9,1720 L9,1721 L10,1722 L10,1723 L10,1724 L10,1725 L9,1726 L9,1727 L9,1728 L9,1729 L9,1730 L9,1731 L8,1732 L8,1733 L8,1734 L9,1735 L10,1736 L10,1737 L9,1738 L10,1739 L11,1740 L10,1741 L9,1742 L9,1743 L8,1744 L8,1745 L8,1746 L8,1747 L8,1748 L8,1749 L9,1750 L10,1751 L11,1752 L12,1753 L13,1754 L14,1755 L15,1756 L16,1757 L17,1758 L17,1759 L17,1760 L17,1761 L17,1762 L16,1763 L16,1764 L16,1765 L16,1766 L16,1767 L15,1768 L15,1769 L14,1770 L14,1771 L13,1772 L13,1773 L13,1774 L14,1775 L14,1776 L15,1777 L16,1778 L16,1779 L16,1780 L16,1781 L16,1782 L16,1783 L15,1784 L16,1785 L17,1786 L18,1787 L17,1788 L16,1789 L15,1790 L14,1791 L13,1792 L12,1793 L12,1794 L12,1795 L12,1796 L11,1797 L11,1798 L11,1799 L11,1800 L11,1801 L11,1802 L11,1803 L12,1804 L13,1805 L14,1806 L14,1807 L15,1808 L15,1809 L15,1810 L16,1811 L16,1812 L16,1813 L16,1814 L15,1815 L15,1816 L15,1817 L15,1818 L15,1819 L14,1820 L13,1821 L13,1822 L13,1823 L14,1824 L15,1825 L15,1826 L15,1827 L15,1828 L15,1829 L15,1830 L15,1831 L15,1832 L15,1833 L15,1834 L15,1835 L15,1836 L14,1837 L14,1838 L14,1839 L15,1840 L16,1841 L17,1842 L17,1843 L17,1844 L17,1845 L17,1846 L17,1847 L17,1848 L17,1849 L17,1850 L17,1851 L17,1852 L16,1853 L15,1853 L14,1853 L13,1853 L12,1854 L11,1855 L11,1856 L11,1857 L11,1858 L11,1859 L10,1860 L10,1861 L9,1862 L8,1863 L8,1864 L9,1865 L9,1866 L10,1867 L10,1868 L10,1869 L11,1870 L11,1871 L11,1872 L10,1873 L10,1874 L10,1875 L9,1876 L9,1877 L9,1878 L9,1879 L9,1880 L9,1881 L9,1882 L9,1883 L9,1884 L8,1885 L8,1886 L8,1887 L8,1888 L8,1889 L8,1890 L8,1891 L8,1892 L8,1893 L8,1894 L8,1895 L8,1896 L8,1897 L9,1898 L9,1899 L9,1900 L9,1901 L9,1902 L9,1903 L9,1904 L8,1904 L7,1905 L6,1905 L5,1906 L5,1907 L5,1908 L4,1908 L3,1909 L2,1910 L1,1911 L0,1912 L0,1912 L1,1912 L1,1913 L1,1914 L1,1915 L1,1916 L1,1917 L1,1918 L1,1919 L1,1920 L1,1921 L2,1922 L2,1923 L2,1924 L2,1925 L2,1926 L2,1927 L2,1928 L3,1929 L4,1930 L4,1931 L5,1932 L6,1933 L7,1933 L7,1934 L7,1935 L8,1936 L9,1937 L10,1938 L11,1939 L12,1940 L12,1941 L12,1942 L12,1943 L13,1944 L13,1945 L13,1946 L13,1947 L12,1948 L12,1949 L11,1950 L10,1951 L10,1952 L11,1953 L12,1954 L13,1955 L13,1956 L13,1957 L13,1958 L13,1959 L14,1960 L14,1961 L14,1962 L14,1963 L14,1964 L14,1965 L13,1966 L12,1967 L12,1968 L11,1969 L11,1970 L11,1971 L11,1972 L10,1973 L10,1974 L10,1975 L9,1976 L9,1977 L10,1978 L10,1979 L9,1980 L9,1981 L9,1982 L9,1983 L8,1984 L7,1985 L8,1986 L9,1987 L10,1988 L11,1989 L12,1989 L13,1989 L14,1990 L15,1991 L16,1992 L17,1993 L18,1994 L18,1995 L18,1996 L18,1997 L18,1998 L17,1999 L17,2000 L17,2001 L16,2002 L16,2003 L15,2004 L14,2005 L13,2006 L12,2007 L11,2008 L11,2009 L11,2010 L11,2011 L11,2012 L11,2013 L11,2014 L11,2015 L11,2016 L10,2017 L10,2018 L10,2019 L9,2020 L8,2021 L7,2022 L7,2023 L6,2024 L5,2025 L5,2026 L5,2027 L5,2028 L5,2029 L5,2030 L5,2031 L5,2032 L5,2033 L5,2034 L6,2035 L7,2035 L8,2036 L9,2037 L8,2038 L7,2039 L6,2040 L5,2040 L4,2040 L3,2041 L2,2042 L2,2043 L1,2044 L1,2045 L1,2046 L1,2047 L0,2048 L1,2049 L0,2050 L0,2050 L1,2049 L2,2049 L3,2049 L4,2048 L5,2047 L6,2046 L7,2045 L8,2046 L9,2047 L10,2046 L11,2045 L12,2045 L13,2045 L14,2044 L15,2044 L16,2043 L17,2042 L18,2043 L19,2044 L20,2045 L21,2046 L21,2045 L22,2046 L23,2047 L24,2048 L25,2048 L26,2048 L27,2048 L28,2048 L29,2048 L30,2047 L31,2047 L32,2047 L33,2047 L34,2048 L35,2048 L36,2048 L37,2049 L38,2049 L39,2049 L40,2048 L41,2049 L42,2049 L43,2049 L44,2048 L45,2047 L46,2046 L47,2045 L48,2045 L49,2045 L50,2045 L51,2044 L52,2043 L52,2042 L53,2041 L54,2042 L55,2043 L56,2044 L57,2045 L58,2046 L59,2047 L60,2048 L61,2049 L62,2048 L63,2047 L64,2046 L65,2047 L65,2048 L66,2049 L67,2049 L68,2049 L69,2048 L70,2047 L71,2048 L72,2049 L73,2050 L74,2050 L75,2049 L75,2050 L76,2049 L77,2048 L77,2047 L77,2046 L78,2045 L79,2044 L80,2045 L81,2045 L82,2046 L83,2047 L84,2048 L85,2047 L86,2047 L87,2047 L88,2047 L89,2048 L90,2049 L91,2049 L92,2049 L93,2049 L94,2049 L95,2048 L95,2049 L96,2048 L97,2047 L98,2048 L99,2048 L100,2049 L101,2049 L102,2049 L103,2048 L104,2047 L105,2046 L106,2047 L107,2048 L108,2049 L109,2049 L110,2050 L110,2050 L111,2049 L112,2049 L113,2048 L114,2047 L115,2046 L116,2045 L117,2046 L117,2045 L118,2046 L119,2046 L120,2045 L120,2044 L121,2043 L122,2042 L123,2041 L124,2040 L125,2039 L126,2038 L127,2038 L128,2038 L129,2037 L130,2036 L131,2035 L132,2035 L133,2035 L134,2034 L135,2034 L136,2034 L137,2034 L138,2034 L139,2035 L139,2036 L140,2037 L141,2038 L142,2039 L143,2038 L144,2037 L145,2037 L146,2038 L147,2039 L148,2038 L149,2038 L150,2038 L151,2038 L152,2039 L153,2040 L154,2041 L155,2042 L156,2043 L157,2043 L158,2043 L159,2044 L160,2045 L161,2045 L162,2045 L163,2045 L164,2045 L165,2045 L166,2045 L167,2045 L168,2045 L169,2044 L170,2044 L171,2043 L172,2042 L172,2041 L172,2040 L173,2039 L174,2039 L175,2039 L176,2039 L177,2039 L178,2039 L179,2039 L180,2038 L181,2037 L182,2036 L183,2037 L184,2037 L185,2038 L186,2038 L187,2038 L188,2037 L189,2037 L190,2037 L191,2038 L192,2039 L193,2040 L193,2041 L193,2042 L194,2043 L195,2044 L196,2045 L197,2046 L198,2047 L199,2048 L200,2049 L200,2050 L201,2049 L202,2049 L203,2049 L204,2049 L205,2049 L206,2050 L206,2050 L206,2049 L207,2048 L208,2048 L209,2049 L210,2048 L211,2047 L212,2047 L213,2046 L214,2045 L215,2044 L216,2045 L217,2046 L218,2047 L219,2048 L220,2049 L221,2049 L222,2049 L223,2049 L224,2048 L225,2047 L226,2048 L227,2048 L228,2048 L229,2047 L229,2046 L230,2045 L231,2044 L232,2043 L233,2042 L234,2042 L235,2043 L236,2044 L237,2044 L238,2045 L239,2044 L240,2043 L241,2042 L242,2041 L243,2041 L244,2040 L245,2039 L246,2039 L247,2039 L248,2040 L249,2041 L250,2042 L251,2043 L252,2044 L252,2045 L252,2046 L253,2047 L254,2047 L255,2047 L256,2047 L257,2047 L258,2047 L259,2046 L260,2045 L261,2046 L262,2047 L263,2046 L264,2046 L265,2045 L266,2044 L267,2044 L268,2043 L269,2043 L270,2044 L271,2044 L272,2045 L273,2046 L274,2047 L275,2048 L276,2049 L277,2048 L278,2047 L279,2047 L280,2047 L281,2047 L282,2048 L283,2049 L284,2049 L285,2049 L286,2048 L287,2047 L288,2048 L289,2047 L290,2047 L291,2047 L292,2046 L293,2045 L294,2044 L295,2044 L296,2044 L297,2043 L298,2043 L299,2043 L300,2043 L301,2044 L302,2045 L303,2046 L304,2047 L305,2047 L306,2048 L307,2049 L308,2049 L309,2049 L310,2049 L311,2049 L312,2049 L313,2049 L314,2049 L315,2049 L316,2049 L317,2049 L318,2049 L319,2049 L320,2049 L321,2049 L322,2048 L323,2047 L324,2046 L325,2046 L326,2046 L327,2046 L328,2047 L329,2048 L330,2049 L331,2049 L332,2049 L333,2049 L334,2049 L335,2049 L336,2049 L337,2049 L338,2049 L339,2049 L340,2049 L341,2049 L342,2049 L343,2049 L344,2049 L345,2048 L346,2047 L347,2048 L348,2049 L349,2048 L350,2048 L351,2048 L352,2048 L353,2048 L354,2048 L355,2048 L356,2049 L357,2049 L358,2048 L359,2049 L360,2048 L361,2047 L362,2048 L363,2049 L364,2049 L365,2049 L366,2049 L367,2048 L368,2048 L369,2048 L370,2048 L371,2048 L372,2048 L373,2047 L374,2047 L375,2047 L376,2047 L377,2048 L378,2048 L379,2048 L380,2048 L381,2048 L382,2048 L383,2047 L384,2047 L385,2047 L386,2047 L387,2047 L388,2048 L389,2048 L390,2048 L391,2048 L392,2047 L393,2047 L394,2046 L395,2046 L396,2046 L397,2046 L397,2046 L398,2046 L399,2046 L400,2046 L401,2046 L402,2046 L403,2046 L404,2046 L405,2046 L406,2047 L407,2048 L408,2048 L409,2048 L410,2048 L411,2048 L412,2047 L413,2047 L414,2047 L415,2046 L416,2046 L417,2045 L418,2044 L419,2044 L420,2044 L421,2044 L422,2045 L423,2045 L424,2045 L425,2045 L426,2045 L427,2045 L428,2045 L429,2045 L430,2046 L431,2047 L432,2047 L433,2047 L434,2048 L435,2049 L436,2049 L437,2049 L438,2049 L439,2049 L440,2049 L441,2049 L442,2049 L443,2049 L444,2049 L445,2049 L446,2049 L447,2048 L448,2048 L449,2048 L450,2048 L451,2048 L452,2048 L453,2048 L454,2048 L455,2048 L456,2048 L457,2048 L458,2048 L459,2049 L460,2049 L461,2049 L462,2049 L463,2049 L464,2049 L465,2049 L466,2049 L467,2049 L468,2048 L469,2048 L470,2048 L471,2048 L472,2048 L473,2048 L474,2048 L475,2049 L476,2049 L477,2049 L478,2049 L479,2049 L480,2049 L481,2049 L482,2049 L483,2049 L484,2049 L485,2049 L486,2048 L487,2047 L488,2046 L489,2045 L490,2045 L491,2044 L492,2043 L493,2042 L494,2041 L495,2040 L496,2039 L497,2040 L498,2039 L499,2039 L500,2039 L501,2039 L502,2039 L503,2039 L504,2039 L505,2040 L506,2041 L507,2042 L508,2043 L509,2043 L510,2044 L511,2045 L512,2046 L512,2046 L513,2047 L514,2048 L515,2048 L516,2048 L517,2048 L518,2048 L519,2049 L520,2050 L521,2049 L522,2049 L523,2048 L524,2047 L525,2046 L526,2045 L527,2044 L528,2044 L529,2044 L530,2044 L531,2043 L532,2042 L533,2041 L534,2040 L535,2040 L536,2041 L537,2040 L538,2039 L539,2038 L540,2038 L541,2037 L542,2036 L543,2035 L544,2035 L545,2035 L546,2035 L547,2035 L548,2036 L549,2037 L549,2038 L549,2039 L550,2040 L550,2041 L551,2042 L551,2043 L551,2044 L551,2045 L552,2046 L553,2047 L554,2048 L555,2048 L556,2048 L557,2048 L558,2048 L559,2047 L560,2046 L560,2046 L560,2045 L561,2044 L562,2044 L563,2044 L564,2043 L565,2043 L566,2043 L567,2043 L568,2043 L569,2043 L570,2043 L571,2043 L572,2043 L573,2043 L574,2044 L575,2045 L576,2046 L577,2046 L578,2046 L579,2045 L580,2045 L581,2045 L582,2045 L583,2045 L584,2045 L585,2045 L586,2046 L587,2047 L588,2047 L589,2046 L590,2045 L591,2044 L592,2043 L593,2042 L594,2042 L595,2041 L596,2041 L597,2042 L598,2041 L599,2040 L600,2039 L601,2039 L602,2039 L603,2040 L604,2041 L605,2042 L606,2042 L607,2043 L608,2044 L609,2045 L610,2046 L611,2047 L611,2048 L612,2048 L613,2048 L614,2049 L615,2049 L616,2049 L617,2049 L618,2049 L619,2049 L620,2049 L621,2049 L622,2049 L623,2049 L624,2049 L625,2050 L626,2049 L627,2049 L628,2048 L629,2047 L630,2048 L631,2049 L632,2049 L633,2048 L634,2049 L635,2048 L636,2049 L637,2050 L638,2050 L639,2049 L640,2049 L641,2049 L642,2049 L643,2048 L644,2047 L645,2047 L646,2047 L647,2047 L648,2046 L649,2045 L649,2044 L649,2043 L650,2042 L651,2042 L652,2041 L653,2040 L653,2039 L653,2038 L653,2037 L653,2036 L654,2035 L655,2034 L656,2033 L657,2033 L658,2033 L659,2033 L660,2034 L661,2034 L662,2034 L663,2034 L664,2034 L665,2033 L666,2033 L667,2033 L668,2033 L669,2032 L670,2032 L671,2033 L672,2034 L673,2035 L673,2036 L673,2037 L674,2038 L675,2039 L676,2040 L677,2041 L678,2040 L679,2040 L680,2041 L681,2042 L682,2043 L683,2044 L684,2045 L685,2046 L685,2046 L686,2046 L687,2046 L688,2045 L689,2044 L689,2043 L690,2042 L690,2041 L690,2040 L691,2039 L692,2038 L693,2038 L694,2038 L695,2039 L696,2040 L697,2040 L698,2040 L699,2040 L700,2040 L701,2039 L702,2039 L703,2040 L704,2040 L705,2040 L706,2040 L707,2040 L708,2039 L709,2038 L710,2038 L711,2038 L712,2038 L713,2038 L714,2038 L715,2038 L716,2038 L717,2039 L718,2039 L719,2039 L720,2039 L721,2039 L722,2038 L723,2038 L724,2038 L725,2038 L726,2038 L727,2037 L728,2037 L729,2037 L730,2038 L731,2039 L732,2040 L733,2040 L734,2040 L735,2041 L735,2042 L735,2043 L735,2044 L736,2045 L737,2045 L738,2046 L739,2046 L740,2047 L741,2047 L742,2046 L743,2045 L744,2046 L745,2045 L746,2044 L747,2044 L748,2045 L749,2046 L750,2045 L751,2045 L752,2044 L753,2043 L754,2043 L755,2043 L756,2042 L757,2042 L758,2042 L759,2041 L760,2040 L761,2039 L762,2039 L763,2038 L764,2037 L765,2036 L766,2035 L767,2035 L768,2036 L769,2037 L770,2037 L771,2037 L772,2037 L773,2037 L774,2036 L775,2037 L776,2038 L777,2039 L778,2038 L779,2038 L780,2038 L781,2038 L782,2039 L783,2040 L784,2041 L785,2041 L786,2042 L787,2042 L788,2041 L789,2040 L790,2039 L791,2038 L791,2037 L791,2036 L792,2035 L793,2034 L794,2034 L795,2035 L796,2036 L797,2036 L798,2037 L799,2037 L800,2037 L801,2038 L802,2038 L803,2038 L804,2038 L805,2039 L806,2040 L807,2040 L808,2040 L809,2041 L810,2042 L811,2043 L812,2043 L813,2044 L814,2044 L815,2045 L816,2045 L817,2046 L818,2047 L819,2048 L820,2047 L821,2046 L822,2045 L823,2045 L824,2046 L824,2046 L825,2047 L826,2047 L827,2047 L828,2046 L829,2045 L830,2046 L831,2047 L832,2047 L833,2047 L834,2046 L835,2046 L836,2045 L837,2045 L838,2045 L839,2045 L840,2045 L841,2046 L841,2047 L842,2048 L843,2048 L844,2048 L845,2048 L846,2048 L847,2048 L848,2049 L849,2049 L850,2049 L851,2049 L852,2049 L853,2049 L854,2049 L855,2048 L856,2047 L857,2046 L858,2046 L859,2047 L860,2048 L861,2048 L862,2048 L863,2047 L864,2047 L865,2048 L866,2049 L867,2048 L868,2048 L869,2047 L870,2047 L871,2047 L872,2047 L873,2046 L874,2046 L875,2045 L876,2044 L877,2043 L878,2042 L879,2041 L880,2040 L881,2039 L882,2039 L883,2039 L884,2039 L885,2038 L886,2037 L887,2038 L888,2039 L889,2040 L890,2041 L891,2042 L892,2042 L893,2042 L894,2042 L895,2042 L896,2042 L897,2042 L898,2042 L899,2042 L900,2042 L901,2042 L902,2042 L903,2043 L904,2043 L905,2043 L906,2043 L907,2043 L908,2043 L909,2044 L910,2044 L911,2044 L912,2044 L913,2044 L914,2045 L915,2045 L916,2045 L917,2045 L918,2045 L919,2045 L920,2044 L921,2043 L922,2043 L923,2043 L924,2043 L925,2043 L926,2043 L927,2044 L928,2044 L929,2044 L930,2044 L931,2043 L932,2043 L933,2043 L934,2043 L935,2043 L936,2043 L937,2043 L938,2043 L939,2043 L940,2043 L941,2043 L942,2043 L943,2043 L944,2044 L945,2044 L946,2044 L947,2045 L948,2046 L949,2046 L950,2046 L951,2046 L952,2046 L953,2045 L954,2045 L955,2045 L956,2045 L957,2045 L958,2045 L959,2045 L960,2045 L961,2046 L962,2046 L963,2046 L963,2046 L964,2047 L965,2047 L966,2048 L967,2048 L968,2048 L969,2048 L970,2048 L971,2048 L972,2048 L973,2048 L974,2048 L975,2048 L976,2048 L977,2048 L978,2048 L979,2048 L980,2048 L981,2048 L982,2048 L983,2049 L984,2049 L985,2049 L986,2049 L987,2049 L988,2049 L989,2049 L990,2049 L991,2049 L992,2049 L993,2049 L994,2049 L995,2049 L996,2049 L997,2049 L998,2048 L999,2047 L1000,2046 L1001,2046 L1002,2046 L1003,2046 L1004,2045 L1005,2044 L1006,2044 L1007,2044 L1008,2044 L1009,2044 L1010,2044 L1011,2043 L1012,2042 L1013,2042 L1014,2042 L1015,2041 L1016,2040 L1017,2039 L1018,2038 L1019,2038 L1020,2038 L1021,2038 L1022,2038 L1023,2039 L1024,2040 L1025,2040 L1026,2039 L1027,2039 L1028,2039 L1029,2039 L1030,2039 L1031,2039 L1032,2039 L1033,2040 L1034,2041 L1035,2041 L1036,2042 L1037,2043 L1038,2044 L1039,2045 L1040,2046 L1041,2046 L1042,2046 L1043,2047 L1044,2048 L1045,2049 L1046,2048 L1047,2047 L1048,2048 L1049,2049 L1050,2049 L1051,2049 L1052,2049 L1053,2049 L1054,2049 L1055,2049 L1056,2049 L1057,2049 L1058,2049 L1059,2049 L1060,2048 L1061,2048 L1062,2048 L1063,2048 L1064,2049 L1065,2049 L1066,2049 L1067,2049 L1068,2048 L1069,2047 L1070,2046 L1071,2045 L1072,2044 L1073,2045 L1074,2044 L1075,2043 L1076,2042 L1077,2041 L1078,2040 L1079,2041 L1080,2042 L1081,2042 L1082,2042 L1083,2042 L1084,2042 L1085,2042 L1086,2042 L1087,2041 L1088,2040 L1089,2040 L1090,2040 L1091,2040 L1092,2040 L1093,2040 L1094,2041 L1095,2041 L1096,2041 L1097,2041 L1098,2041 L1099,2042 L1100,2042 L1101,2042 L1102,2042 L1103,2042 L1104,2043 L1105,2044 L1106,2044 L1107,2045 L1108,2045 L1109,2045 L1110,2045 L1111,2045 L1112,2045 L1113,2045 L1114,2045 L1115,2046 L1116,2046 L1117,2046 L1118,2046 L1119,2046 L1120,2046 L1121,2046 L1122,2046 L1123,2046 L1124,2046 L1125,2046 L1126,2047 L1127,2048 L1128,2048 L1129,2048 L1130,2048 L1131,2048 L1132,2048 L1133,2048 L1134,2048 L1135,2048 L1136,2048 L1137,2048 L1138,2047 L1139,2047 L1140,2047 L1141,2047 L1142,2047 L1143,2047 L1144,2047 L1145,2047 L1146,2047 L1147,2047 L1148,2047 L1149,2047 L1150,2047 L1151,2047 L1152,2048 L1153,2049 L1154,2049 L1155,2049 L1156,2049 L1157,2049 L1158,2049 L1159,2049 L1160,2049 L1161,2048 L1162,2047 L1163,2046 L1164,2045 L1165,2044 L1166,2043 L1167,2043 L1168,2044 L1169,2044 L1170,2043 L1171,2043 L1172,2044 L1173,2044 L1174,2044 L1175,2044 L1176,2044 L1177,2044 L1178,2044 L1179,2044 L1180,2044 L1181,2045 L1182,2046 L1183,2047 L1184,2048 L1185,2049 L1186,2049 L1187,2049 L1188,2049 L1189,2049 L1190,2049 L1191,2049 L1192,2049 L1193,2049 L1194,2049 L1195,2049 L1196,2049 L1197,2049 L1198,2049 L1199,2048 L1200,2047 L1201,2046 L1202,2046 L1203,2046 L1204,2046 L1205,2047 L1206,2048 L1207,2049 L1208,2049 L1209,2049 L1210,2048 L1211,2048 L1212,2049 L1213,2049 L1214,2049 L1215,2049 L1216,2048 L1217,2048 L1218,2049 L1219,2049 L1220,2049 L1221,2049 L1222,2049 L1223,2049 L1224,2049 L1225,2049 L1226,2048 L1227,2048 L1228,2047 L1229,2047 L1230,2046 L1231,2046 L1232,2045 L1233,2045 L1234,2045 L1235,2045 L1236,2045 L1237,2045 L1238,2045 L1239,2045 L1240,2045 L1241,2045 L1242,2045 L1243,2045 L1244,2045 L1245,2045 L1246,2045 L1247,2044 L1248,2043 L1249,2042 L1250,2042 L1251,2041 L1252,2040 L1253,2040 L1254,2040 L1255,2040 L1256,2040 L1257,2040 L1258,2040 L1259,2040 L1260,2040 L1261,2040 L1262,2041 L1263,2041 L1264,2041 L1265,2041 L1265,2041 L1265,2042 L1265,2043 L1266,2044 L1267,2045 L1268,2046 L1269,2046 L1270,2046 L1271,2046 L1272,2046 L1273,2045 L1274,2044 L1275,2043 L1275,2042 L1276,2043 L1277,2042 L1278,2043 L1279,2044 L1280,2045 L1281,2045 L1282,2046 L1283,2047 L1284,2047 L1285,2048 L1286,2048 L1287,2047 L1288,2047 L1289,2047 L1290,2048 L1291,2049 L1292,2049 L1293,2049 L1294,2049 L1295,2049 L1296,2048 L1296,2047 L1297,2046 L1298,2045 L1299,2045 L1300,2046 L1301,2047 L1302,2048 L1303,2048 L1304,2048 L1305,2048 L1306,2048 L1307,2047 L1308,2047 L1309,2047 L1310,2048 L1311,2048 L1312,2048 L1313,2048 L1314,2048 L1315,2049 L1316,2049 L1317,2050 L1318,2049 L1319,2048 L1320,2048 L1321,2048 L1322,2047 L1323,2047 L1324,2047 L1325,2047 L1326,2048 L1327,2049 L1328,2050 L1329,2049 L1330,2048 L1331,2047 L1332,2046 L1333,2045 L1334,2044 L1335,2045 L1336,2045 L1337,2045 L1338,2045 L1339,2044 L1340,2044 L1341,2043 L1342,2043 L1343,2043 L1344,2043 L1345,2043 L1346,2043 L1347,2043 L1348,2043 L1349,2044 L1350,2045 L1351,2045 L1352,2045 L1353,2045 L1354,2045 L1355,2045 L1356,2045 L1357,2046 L1358,2047 L1359,2048 L1360,2049 L1361,2049 L1362,2049 L1363,2049 L1364,2048 L1365,2048 L1366,2047 L1367,2047 L1368,2047 L1369,2047 L1370,2048 L1371,2049 L1371,2048 L1372,2047 L1373,2047 L1374,2047 L1375,2047 L1376,2047 L1377,2046 L1378,2045 L1379,2045 L1380,2045 L1381,2045 L1382,2046 L1383,2047 L1384,2048 L1384,2049 L1385,2050 L1385,2050 L1386,2049 L1386,2048 L1387,2047 L1388,2048 L1389,2049 L1390,2049 L1391,2049 L1392,2049 L1393,2049 L1394,2048 L1395,2048 L1396,2048 L1397,2048 L1398,2048 L1399,2048 L1400,2048 L1401,2048 L1402,2048 L1403,2048 L1404,2048 L1405,2047 L1406,2046 L1407,2046 L1408,2046 L1409,2047 L1410,2048 L1411,2048 L1412,2048 L1413,2048 L1414,2048 L1415,2048 L1416,2048 L1417,2048 L1418,2049 L1419,2049 L1420,2049 L1421,2049 L1422,2049 L1423,2049 L1424,2049 L1425,2049 L1426,2049 L1427,2049 L1428,2049 L1429,2049 L1430,2049 L1431,2049 L1432,2049 L1433,2048 L1434,2048 L1435,2048 L1436,2048 L1437,2048 L1438,2048 L1439,2048 L1440,2048 L1441,2049 L1442,2049 L1443,2049 L1444,2049 L1445,2049 L1446,2049 L1447,2049 L1448,2049 L1449,2049 L1450,2049 L1451,2049 L1452,2049 L1453,2049 L1454,2049 L1455,2049 L1456,2049 L1457,2049 L1458,2049 L1459,2049 L1460,2049 L1461,2048 L1462,2048 L1463,2047 L1464,2046 L1465,2046 L1466,2045 L1467,2044 L1468,2043 L1469,2042 L1470,2041 L1470,2040 L1471,2039 L1472,2039 L1473,2039 L1474,2038 L1475,2039 L1476,2039 L1477,2040 L1478,2041 L1479,2042 L1480,2042 L1481,2042 L1482,2042 L1483,2041 L1484,2042 L1485,2042 L1486,2042 L1487,2043 L1488,2043 L1489,2043 L1490,2044 L1491,2045 L1492,2045 L1493,2045 L1494,2045 L1495,2046 L1496,2047 L1497,2048 L1498,2049 L1499,2049 L1500,2049 L1501,2049 L1502,2049 L1503,2049 L1504,2049 L1505,2049 L1506,2048 L1507,2049 L1508,2049 L1509,2049 L1510,2049 L1511,2049 L1512,2049 L1513,2049 L1514,2048 L1515,2047 L1516,2047 L1517,2047 L1518,2046 L1518,2047 L1519,2048 L1520,2049 L1521,2049 L1522,2048 L1523,2047 L1524,2047 L1525,2047 L1526,2047 L1527,2047 L1528,2047 L1529,2047 L1530,2047 L1531,2047 L1532,2047 L1533,2047 L1534,2047 L1535,2047 L1536,2046 L1537,2047 L1538,2048 L1538,2049 L1538,2050 L1538,2050 L1539,2049 L1540,2048 L1541,2048 L1542,2048 L1543,2048 L1544,2048 L1545,2047 L1546,2047 L1547,2046 L1548,2045 L1549,2044 L1550,2043 L1551,2044 L1552,2043 L1553,2042 L1554,2041 L1555,2040 L1556,2040 L1557,2040 L1558,2039 L1559,2039 L1560,2039 L1561,2039 L1562,2040 L1563,2040 L1564,2040 L1565,2040 L1566,2041 L1567,2042 L1568,2042 L1569,2043 L1570,2044 L1571,2044 L1572,2043 L1572,2044 L1573,2043 L1574,2042 L1575,2041 L1576,2040 L1577,2039 L1578,2040 L1579,2041 L1580,2042 L1581,2042 L1582,2042 L1583,2042 L1584,2042 L1585,2041 L1586,2040 L1587,2040 L1588,2040 L1589,2041 L1590,2042 L1591,2042 L1592,2042 L1592,2043 L1592,2044 L1592,2045 L1593,2046 L1594,2047 L1595,2047 L1596,2047 L1597,2047 L1598,2048 L1599,2048 L1600,2048 L1601,2048 L1602,2048 L1603,2049 L1604,2049 L1605,2049 L1606,2049 L1607,2049 L1608,2048 L1609,2048 L1610,2049 L1611,2049 L1612,2049 L1613,2049 L1614,2049 L1615,2049 L1616,2049 L1617,2048 L1618,2049 L1619,2049 L1620,2049 L1621,2049 L1622,2048 L1623,2048 L1624,2048 L1625,2048 L1626,2048 L1627,2048 L1628,2048 L1629,2048 L1630,2048 L1631,2048 L1632,2048 L1633,2048 L1634,2048 L1635,2048 L1636,2048 L1637,2048 L1638,2048 L1639,2048 L1640,2048 L1641,2048 L1642,2048 L1643,2048 L1644,2048 L1645,2048 L1646,2048 L1647,2048 L1648,2048 L1649,2048 L1650,2048 L1651,2049 L1652,2049 L1653,2049 L1654,2049 L1655,2049 L1656,2048 L1657,2049 L1658,2049 L1658,2050 L1658,2050 L1659,2049 L1660,2048 L1661,2049 L1662,2049 L1663,2050 L1664,2049 L1665,2050 L1666,2049 L1667,2048 L1667,2047 L1668,2048 L1669,2049 L1670,2049 L1671,2049 L1672,2048 L1673,2047 L1674,2048 L1675,2049 L1676,2049 L1677,2048 L1678,2049 L1679,2049 L1680,2049 L1681,2049 L1682,2049 L1683,2049 L1684,2049 L1685,2048 L1686,2047 L1687,2046 L1687,2045 L1687,2044 L1687,2043 L1687,2042 L1688,2041 L1689,2040 L1690,2041 L1691,2040 L1692,2040 L1693,2040 L1694,2040 L1695,2039 L1696,2038 L1697,2037 L1698,2037 L1699,2037 L1700,2037 L1701,2038 L1702,2039 L1703,2040 L1704,2039 L1705,2038 L1706,2038 L1707,2039 L1708,2040 L1709,2041 L1710,2042 L1711,2042 L1712,2042 L1713,2042 L1714,2042 L1715,2043 L1715,2044 L1716,2045 L1717,2046 L1717,2047 L1718,2048 L1719,2048 L1720,2047 L1721,2047 L1722,2047 L1723,2047 L1724,2047 L1725,2046 L1726,2046 L1727,2046 L1728,2045 L1729,2045 L1730,2045 L1731,2045 L1732,2045 L1733,2044 L1734,2044 L1735,2044 L1736,2044 L1737,2044 L1738,2044 L1739,2044 L1740,2044 L1741,2044 L1742,2044 L1743,2044 L1744,2044 L1745,2044 L1746,2044 L1747,2044 L1748,2044 L1749,2044 L1750,2044 L1751,2044 L1752,2045 L1753,2045 L1754,2045 L1755,2045 L1756,2045 L1757,2044 L1758,2044 L1759,2044 L1760,2044 L1761,2044 L1762,2045 L1763,2046 L1764,2047 L1765,2048 L1766,2049 L1767,2049 L1768,2049 L1769,2049 L1770,2049 L1771,2049 L1772,2049 L1773,2048 L1774,2048 L1775,2048 L1776,2048 L1777,2047 L1778,2047 L1779,2046 L1780,2045 L1781,2044 L1782,2043 L1783,2043 L1784,2043 L1785,2043 L1786,2043 L1787,2044 L1787,2045 L1788,2046 L1789,2047 L1790,2048 L1791,2048 L1792,2048 L1793,2049 L1794,2049 L1795,2049 L1796,2049 L1797,2050 L1797,2050 L1798,2049 L1799,2048 L1800,2047 L1801,2047 L1802,2047 L1803,2046 L1804,2046 L1805,2046 L1806,2047 L1807,2047 L1808,2048 L1809,2048 L1810,2048 L1811,2048 L1812,2048 L1813,2048 L1814,2047 L1815,2047 L1816,2047 L1817,2047 L1818,2047 L1819,2048 L1820,2049 L1821,2049 L1822,2049 L1823,2049 L1824,2049 L1825,2049 L1826,2049 L1827,2049 L1828,2049 L1829,2049 L1830,2049 L1831,2049 L1832,2049 L1833,2049 L1834,2049 L1835,2049 L1836,2049 L1837,2049 L1838,2048 L1839,2047 L1840,2047 L1841,2047 L1842,2047 L1843,2046 L1843,2045 L1844,2044 L1845,2043 L1846,2043 L1847,2043 L1848,2044 L1849,2045 L1850,2046 L1851,2047 L1852,2047 L1853,2047 L1854,2047 L1855,2048 L1856,2049 L1857,2049 L1858,2049 L1859,2049 L1860,2049 L1861,2049 L1862,2048 L1863,2048 L1864,2047 L1865,2046 L1866,2045 L1867,2044 L1868,2045 L1869,2046 L1870,2045 L1871,2045 L1872,2046 L1873,2047 L1874,2046 L1875,2046 L1876,2046 L1877,2046 L1878,2045 L1879,2044 L1879,2043 L1880,2042 L1881,2041 L1882,2041 L1883,2041 L1884,2041 L1885,2042 L1886,2041 L1887,2040 L1888,2041 L1889,2040 L1890,2039 L1891,2038 L1892,2037 L1893,2036 L1894,2037 L1895,2038 L1895,2039 L1896,2040 L1897,2041 L1898,2042 L1899,2043 L1900,2044 L1901,2044 L1902,2043 L1903,2043 L1904,2043 L1905,2043 L1906,2043 L1907,2044 L1907,2045 L1908,2046 L1908,2047 L1908,2048 L1909,2049 L1910,2049 L1911,2049 L1912,2050 L1912,2050 L1912,2049 L1913,2049 L1914,2048 L1915,2047 L1916,2046 L1917,2046 L1918,2045 L1919,2044 L1920,2043 L1921,2042 L1922,2041 L1923,2041 L1924,2041 L1925,2042 L1926,2043 L1927,2044 L1928,2045 L1929,2046 L1930,2047 L1931,2048 L1932,2049 L1933,2049 L1934,2049 L1935,2049 L1936,2049 L1937,2049 L1938,2049 L1939,2049 L1940,2049 L1941,2048 L1942,2047 L1943,2046 L1944,2045 L1945,2044 L1946,2044 L1947,2044 L1948,2044 L1949,2044 L1950,2044 L1951,2044 L1952,2044 L1953,2044 L1954,2044 L1955,2045 L1956,2046 L1957,2046 L1958,2046 L1959,2046 L1960,2047 L1961,2047 L1962,2047 L1963,2047 L1964,2047 L1965,2047 L1966,2047 L1967,2047 L1968,2047 L1969,2047 L1970,2047 L1971,2046 L1972,2045 L1973,2044 L1974,2043 L1975,2043 L1976,2042 L1977,2042 L1978,2043 L1979,2043 L1980,2043 L1981,2043 L1982,2043 L1983,2044 L1984,2045 L1985,2046 L1986,2047 L1987,2048 L1988,2049 L1989,2048 L1990,2047 L1991,2046 L1992,2045 L1993,2044 L1994,2044 L1995,2044 L1996,2044 L1997,2044 L1998,2043 L1999,2043 L2000,2043 L2001,2043 L2002,2043 L2003,2042 L2004,2041 L2005,2040 L2006,2039 L2007,2039 L2008,2039 L2009,2039 L2010,2039 L2011,2039 L2012,2038 L2013,2039 L2014,2039 L2015,2039 L2016,2039 L2017,2039 L2018,2040 L2019,2041 L2020,2042 L2021,2043 L2022,2044 L2023,2045 L2024,2046 L2025,2046 L2026,2046 L2027,2046 L2028,2045 L2029,2045 L2030,2044 L2031,2043 L2032,2042 L2033,2042 L2034,2042 L2035,2043 L2035,2044 L2036,2045 L2037,2045 L2038,2045 L2039,2046 L2040,2047 L2041,2047 L2042,2047 L2043,2048 L2044,2048 L2045,2048 L2046,2048 L2047,2047 L2048,2046 L2049,2045 L2050,2044 L2051,2044 L2052,2044 L2053,2045 L2054,2045 L2055,2045 L2056,2045 L2057,2045 L2058,2045 L2059,2045 L2060,2045 L2061,2045 L2062,2045 L2063,2046 L2064,2046 L2065,2046 L2066,2046 L2067,2047 L2068,2047 L2069,2047 L2070,2048 L2070,2049 L2071,2048 L2072,2047 L2073,2046 L2074,2045 L2075,2044 L2076,2045 L2077,2044 L2078,2043 L2078,2042 L2079,2043 L2080,2044 L2081,2045 L2082,2046 L2082,2047 L2083,2048 L2084,2049 L2085,2049 L2085,2050 L2085,2050 L2086,2049 L2087,2049 L2088,2049 L2089,2049 L2090,2049 L2091,2049 L2092,2049 L2093,2049 L2094,2049 L2095,2049 L2096,2049 L2097,2049 L2098,2049 L2099,2049 L2100,2048 L2101,2047 L2102,2046 L2103,2046 L2104,2046 L2105,2046 L2106,2046 L2107,2046 L2108,2046 L2109,2046 L2110,2046 L2111,2046 L2112,2046 L2113,2046 L2114,2046 L2115,2046 L2116,2046 L2117,2045 L2118,2045 L2119,2045 L2120,2044 L2121,2044 L2122,2044 L2123,2044 L2124,2044 L2125,2044 L2126,2044 L2127,2044 L2128,2044 L2129,2044 L2130,2044 L2131,2045 L2132,2045 L2133,2045 L2134,2045 L2135,2045 L2136,2045 L2137,2045 L2138,2046 L2139,2046 L2140,2046 L2141,2045 L2142,2045 L2143,2045 L2144,2045 L2145,2045 L2146,2045 L2147,2045 L2148,2046 L2149,2046 L2150,2047 L2151,2047 L2152,2047 L2153,2047 L2154,2047 L2155,2047 L2156,2047 L2157,2047 L2158,2047 L2159,2047 L2160,2048 L2161,2048 L2162,2048 L2163,2048 L2164,2048 L2165,2048 L2166,2048 L2167,2048 L2168,2048 L2169,2048 L2170,2048 L2171,2048 L2172,2048 L2173,2049 L2174,2049 L2175,2049 L2176,2049 L2177,2049 L2178,2049 L2179,2049 L2180,2049 L2181,2049 L2182,2048 L2183,2048 L2184,2049 L2185,2048 L2186,2048 L2187,2048 L2188,2048 L2189,2048 L2190,2049 L2191,2049 L2192,2048 L2193,2047 L2194,2046 L2195,2045 L2196,2046 L2197,2047 L2198,2047 L2199,2047 L2200,2046 L2200,2046 L2199,2047 L2198,2047 L2197,2047 L2196,2046 L2195,2045 L2194,2046 L2193,2045 L2193,2044 L2193,2043 L2192,2042 L2192,2041 L2193,2040 L2193,2039 L2193,2038 L2193,2037 L2193,2036 L2192,2035 L2192,2034 L2192,2033 L2192,2032 L2192,2031 L2192,2030 L2192,2029 L2192,2028 L2192,2027 L2192,2026 L2192,2025 L2192,2024 L2192,2023 L2192,2022 L2192,2021 L2192,2020 L2192,2019 L2192,2018 L2192,2017 L2192,2016 L2192,2015 L2192,2014 L2192,2013 L2192,2012 L2192,2011 L2192,2010 L2192,2009 L2192,2008 L2192,2007 L2192,2006 L2192,2005 L2193,2004 L2193,2003 L2193,2002 L2193,2001 L2192,2000 L2192,1999 L2192,1998 L2192,1997 L2192,1996 L2192,1995 L2192,1994 L2192,1993 L2192,1992 L2192,1991 L2192,1990 L2192,1989 L2192,1988 L2192,1987 L2192,1986 L2192,1985 L2192,1984 L2192,1983 L2193,1982 L2193,1981 L2193,1980 L2193,1979 L2193,1978 L2192,1977 L2192,1976 L2192,1975 L2192,1974 L2192,1973 L2192,1972 L2192,1971 L2192,1970 L2192,1969 L2192,1968 L2192,1967 L2192,1966 L2193,1965 L2193,1964 L2193,1963 L2192,1962 L2192,1961 L2192,1960 L2192,1959 L2192,1958 L2192,1957 L2192,1956 L2192,1955 L2192,1954 L2192,1953 L2192,1952 L2192,1951 L2192,1950 L2192,1949 L2192,1948 L2192,1947 L2192,1946 L2192,1945 L2192,1944 L2192,1943 L2192,1942 L2192,1941 L2192,1940 L2192,1939 L2192,1938 L2192,1937 L2192,1936 L2192,1935 L2192,1934 L2192,1933 L2192,1932 L2192,1931 L2192,1930 L2192,1929 L2192,1928 L2192,1927 L2192,1926 L2192,1925 L2192,1924 L2192,1923 L2192,1922 L2192,1921 L2192,1920 L2192,1919 L2192,1918 L2192,1917 L2192,1916 L2192,1915 L2192,1914 L2192,1913 L2192,1912 L2192,1911 L2192,1910 L2192,1909 L2192,1908 L2192,1907 L2192,1906 L2192,1905 L2191,1904 L2191,1903 L2191,1902 L2191,1901 L2191,1900 L2191,1899 L2191,1898 L2191,1897 L2191,1896 L2191,1895 L2191,1894 L2192,1893 L2192,1892 L2192,1891 L2191,1890 L2192,1889 L2192,1888 L2192,1887 L2191,1886 L2191,1885 L2191,1884 L2191,1883 L2191,1882 L2191,1881 L2191,1880 L2191,1879 L2191,1878 L2191,1877 L2191,1876 L2192,1875 L2193,1874 L2193,1873 L2193,1872 L2192,1871 L2192,1870 L2192,1869 L2192,1868 L2192,1867 L2192,1866 L2192,1865 L2192,1864 L2192,1863 L2192,1862 L2192,1861 L2191,1860 L2191,1859 L2191,1858 L2191,1857 L2191,1856 L2191,1855 L2191,1854 L2191,1853 L2191,1852 L2191,1851 L2191,1850 L2191,1849 L2191,1848 L2191,1847 L2191,1846 L2191,1845 L2191,1844 L2191,1843 L2191,1842 L2191,1841 L2191,1840 L2191,1839 L2191,1838 L2191,1837 L2191,1836 L2191,1835 L2191,1834 L2191,1833 L2191,1832 L2191,1831 L2191,1830 L2191,1829 L2191,1828 L2191,1827 L2191,1826 L2191,1825 L2191,1824 L2191,1823 L2191,1822 L2191,1821 L2191,1820 L2191,1819 L2190,1818 L2190,1817 L2190,1816 L2190,1815 L2190,1814 L2190,1813 L2191,1812 L2191,1811 L2191,1810 L2191,1809 L2191,1808 L2191,1807 L2191,1806 L2191,1805 L2191,1804 L2191,1803 L2190,1802 L2190,1801 L2190,1800 L2190,1799 L2190,1798 L2190,1797 L2190,1796 L2190,1795 L2190,1794 L2190,1793 L2190,1792 L2190,1791 L2190,1790 L2190,1789 L2190,1788 L2190,1787 L2190,1786 L2190,1785 L2190,1784 L2191,1783 L2191,1782 L2190,1781 L2190,1780 L2190,1779 L2190,1778 L2190,1777 L2190,1776 L2190,1775 L2190,1774 L2190,1773 L2190,1772 L2190,1771 L2190,1770 L2190,1769 L2190,1768 L2190,1767 L2190,1766 L2191,1765 L2191,1764 L2191,1763 L2191,1762 L2191,1761 L2191,1760 L2190,1759 L2190,1758 L2190,1757 L2190,1756 L2190,1755 L2190,1754 L2190,1753 L2190,1752 L2190,1751 L2190,1750 L2190,1749 L2190,1748 L2190,1747 L2190,1746 L2190,1745 L2190,1744 L2190,1743 L2190,1742 L2190,1741 L2189,1740 L2189,1739 L2189,1738 L2189,1737 L2189,1736 L2189,1735 L2190,1734 L2190,1733 L2190,1732 L2190,1731 L2190,1730 L2190,1729 L2190,1728 L2190,1727 L2190,1726 L2190,1725 L2190,1724 L2190,1723 L2190,1722 L2190,1721 L2190,1720 L2190,1719 L2190,1718 L2190,1717 L2190,1716 L2190,1715 L2190,1714 L2190,1713 L2190,1712 L2190,1711 L2190,1710 L2190,1709 L2190,1708 L2190,1707 L2190,1706 L2190,1705 L2190,1704 L2190,1703 L2190,1702 L2190,1701 L2190,1700 L2190,1699 L2190,1698 L2190,1697 L2190,1696 L2190,1695 L2190,1694 L2190,1693 L2190,1692 L2190,1691 L2190,1690 L2190,1689 L2190,1688 L2190,1687 L2190,1686 L2190,1685 L2190,1684 L2190,1683 L2190,1682 L2190,1681 L2190,1680 L2190,1679 L2190,1678 L2190,1677 L2190,1676 L2190,1675 L2190,1674 L2190,1673 L2190,1672 L2190,1671 L2190,1670 L2190,1669 L2190,1668 L2190,1667 L2190,1666 L2190,1665 L2190,1664 L2190,1663 L2190,1662 L2190,1661 L2190,1660 L2190,1659 L2190,1658 L2190,1657 L2190,1656 L2190,1655 L2190,1654 L2190,1653 L2190,1652 L2190,1651 L2190,1650 L2190,1649 L2190,1648 L2190,1647 L2190,1646 L2190,1645 L2190,1644 L2190,1643 L2190,1642 L2190,1641 L2190,1640 L2190,1639 L2190,1638 L2190,1637 L2190,1636 L2190,1635 L2190,1634 L2190,1633 L2190,1632 L2190,1631 L2190,1630 L2190,1629 L2190,1628 L2190,1627 L2190,1626 L2190,1625 L2190,1624 L2190,1623 L2190,1622 L2190,1621 L2191,1620 L2191,1619 L2191,1618 L2191,1617 L2191,1616 L2191,1615 L2191,1614 L2191,1613 L2191,1612 L2190,1611 L2190,1610 L2190,1609 L2190,1608 L2190,1607 L2190,1606 L2190,1605 L2190,1604 L2190,1603 L2190,1602 L2190,1601 L2190,1600 L2190,1599 L2190,1598 L2190,1597 L2190,1596 L2190,1595 L2190,1594 L2190,1593 L2190,1592 L2190,1591 L2190,1590 L2190,1589 L2190,1588 L2190,1587 L2190,1586 L2190,1585 L2190,1584 L2190,1583 L2190,1582 L2190,1581 L2190,1580 L2190,1579 L2190,1578 L2190,1577 L2190,1576 L2190,1575 L2190,1574 L2190,1573 L2190,1572 L2190,1571 L2190,1570 L2190,1569 L2190,1568 L2190,1567 L2190,1566 L2190,1565 L2190,1564 L2190,1563 L2190,1562 L2190,1561 L2190,1560 L2190,1559 L2190,1558 L2190,1557 L2190,1556 L2190,1555 L2190,1554 L2190,1553 L2190,1552 L2190,1551 L2190,1550 L2190,1549 L2190,1548 L2190,1547 L2190,1546 L2190,1545 L2190,1544 L2190,1543 L2190,1542 L2190,1541 L2190,1540 L2190,1539 L2190,1538 L2190,1537 L2190,1536 L2190,1535 L2190,1534 L2190,1533 L2190,1532 L2190,1531 L2190,1530 L2190,1529 L2190,1528 L2190,1527 L2190,1526 L2190,1525 L2190,1524 L2190,1523 L2190,1522 L2190,1521 L2190,1520 L2190,1519 L2190,1518 L2190,1517 L2190,1516 L2190,1515 L2190,1514 L2190,1513 L2190,1512 L2190,1511 L2190,1510 L2190,1509 L2190,1508 L2190,1507 L2190,1506 L2190,1505 L2190,1504 L2190,1503 L2190,1502 L2190,1501 L2190,1500 L2190,1499 L2190,1498 L2190,1497 L2190,1496 L2190,1495 L2190,1494 L2190,1493 L2190,1492 L2190,1491 L2190,1490 L2190,1489 L2190,1488 L2190,1487 L2190,1486 L2190,1485 L2190,1484 L2190,1483 L2190,1482 L2190,1481 L2190,1480 L2190,1479 L2190,1478 L2190,1477 L2190,1476 L2190,1475 L2190,1474 L2190,1473 L2190,1472 L2190,1471 L2190,1470 L2190,1469 L2190,1468 L2190,1467 L2190,1466 L2190,1465 L2190,1464 L2190,1463 L2190,1462 L2190,1461 L2190,1460 L2190,1459 L2190,1458 L2190,1457 L2190,1456 L2190,1455 L2190,1454 L2190,1453 L2190,1452 L2190,1451 L2190,1450 L2190,1449 L2190,1448 L2190,1447 L2190,1446 L2190,1445 L2190,1444 L2190,1443 L2190,1442 L2190,1441 L2190,1440 L2190,1439 L2191,1438 L2191,1437 L2191,1436 L2191,1435 L2191,1434 L2191,1433 L2191,1432 L2191,1431 L2191,1430 L2191,1429 L2190,1428 L2190,1427 L2190,1426 L2190,1425 L2190,1424 L2190,1423 L2191,1422 L2191,1421 L2191,1420 L2191,1419 L2191,1418 L2191,1417 L2191,1416 L2191,1415 L2191,1414 L2191,1413 L2191,1412 L2191,1411 L2190,1410 L2190,1409 L2190,1408 L2190,1407 L2191,1406 L2191,1405 L2191,1404 L2191,1403 L2191,1402 L2191,1401 L2191,1400 L2191,1399 L2191,1398 L2191,1397 L2191,1396 L2191,1395 L2191,1394 L2191,1393 L2191,1392 L2191,1391 L2191,1390 L2191,1389 L2191,1388 L2191,1387 L2191,1386 L2191,1385 L2191,1384 L2191,1383 L2191,1382 L2191,1381 L2191,1380 L2191,1379 L2191,1378 L2191,1377 L2191,1376 L2191,1375 L2191,1374 L2191,1373 L2191,1372 L2191,1371 L2191,1370 L2191,1369 L2191,1368 L2191,1367 L2191,1366 L2191,1365 L2191,1364 L2191,1363 L2191,1362 L2191,1361 L2191,1360 L2191,1359 L2191,1358 L2191,1357 L2191,1356 L2191,1355 L2191,1354 L2191,1353 L2191,1352 L2191,1351 L2191,1350 L2191,1349 L2191,1348 L2191,1347 L2191,1346 L2191,1345 L2191,1344 L2191,1343 L2191,1342 L2191,1341 L2191,1340 L2191,1339 L2191,1338 L2191,1337 L2191,1336 L2191,1335 L2191,1334 L2191,1333 L2191,1332 L2191,1331 L2191,1330 L2191,1329 L2191,1328 L2191,1327 L2191,1326 L2191,1325 L2191,1324 L2191,1323 L2191,1322 L2191,1321 L2191,1320 L2191,1319 L2191,1318 L2191,1317 L2191,1316 L2191,1315 L2191,1314 L2191,1313 L2191,1312 L2191,1311 L2191,1310 L2191,1309 L2191,1308 L2191,1307 L2191,1306 L2191,1305 L2191,1304 L2191,1303 L2191,1302 L2191,1301 L2191,1300 L2191,1299 L2191,1298 L2191,1297 L2191,1296 L2191,1295 L2191,1294 L2191,1293 L2191,1292 L2191,1291 L2191,1290 L2191,1289 L2191,1288 L2191,1287 L2191,1286 L2191,1285 L2191,1284 L2191,1283 L2191,1282 L2191,1281 L2191,1280 L2191,1279 L2191,1278 L2191,1277 L2191,1276 L2191,1275 L2191,1274 L2191,1273 L2191,1272 L2192,1271 L2192,1270 L2192,1269 L2192,1268 L2192,1267 L2192,1266 L2192,1265 L2192,1264 L2192,1263 L2192,1262 L2192,1261 L2192,1260 L2192,1259 L2192,1258 L2192,1257 L2192,1256 L2192,1255 L2192,1254 L2192,1253 L2192,1252 L2192,1251 L2192,1250 L2192,1249 L2192,1248 L2192,1247 L2192,1246 L2192,1245 L2192,1244 L2192,1243 L2192,1242 L2192,1241 L2192,1240 L2192,1239 L2192,1238 L2192,1237 L2192,1236 L2192,1235 L2192,1234 L2192,1233 L2192,1232 L2192,1231 L2192,1230 L2192,1229 L2192,1228 L2192,1227 L2192,1226 L2192,1225 L2192,1224 L2192,1223 L2192,1222 L2192,1221 L2192,1220 L2192,1219 L2192,1218 L2192,1217 L2192,1216 L2192,1215 L2192,1214 L2192,1213 L2192,1212 L2192,1211 L2192,1210 L2192,1209 L2192,1208 L2192,1207 L2192,1206 L2192,1205 L2192,1204 L2192,1203 L2192,1202 L2192,1201 L2192,1200 L2192,1199 L2192,1198 L2192,1197 L2192,1196 L2192,1195 L2192,1194 L2192,1193 L2192,1192 L2192,1191 L2192,1190 L2192,1189 L2192,1188 L2192,1187 L2192,1186 L2192,1185 L2192,1184 L2192,1183 L2192,1182 L2192,1181 L2192,1180 L2192,1179 L2192,1178 L2192,1177 L2192,1176 L2192,1175 L2192,1174 L2192,1173 L2192,1172 L2192,1171 L2192,1170 L2192,1169 L2192,1168 L2192,1167 L2191,1166 L2191,1165 L2191,1164 L2192,1163 L2192,1162 L2192,1161 L2192,1160 L2192,1159 L2192,1158 L2192,1157 L2192,1156 L2192,1155 L2192,1154 L2192,1153 L2192,1152 L2192,1151 L2192,1150 L2192,1149 L2192,1148 L2192,1147 L2192,1146 L2192,1145 L2192,1144 L2192,1143 L2192,1142 L2192,1141 L2192,1140 L2192,1139 L2192,1138 L2192,1137 L2192,1136 L2192,1135 L2192,1134 L2192,1133 L2192,1132 L2192,1131 L2192,1130 L2192,1129 L2192,1128 L2192,1127 L2192,1126 L2192,1125 L2192,1124 L2192,1123 L2192,1122 L2192,1121 L2192,1120 L2192,1119 L2192,1118 L2192,1117 L2192,1116 L2192,1115 L2192,1114 L2192,1113 L2192,1112 L2192,1111 L2192,1110 L2192,1109 L2192,1108 L2192,1107 L2192,1106 L2192,1105 L2192,1104 L2192,1103 L2192,1102 L2192,1101 L2192,1100 L2192,1099 L2192,1098 L2192,1097 L2192,1096 L2192,1095 L2192,1094 L2192,1093 L2192,1092 L2192,1091 L2192,1090 L2192,1089 L2192,1088 L2192,1087 L2192,1086 L2192,1085 L2192,1084 L2192,1083 L2192,1082 L2192,1081 L2192,1080 L2192,1079 L2192,1078 L2192,1077 L2192,1076 L2192,1075 L2192,1074 L2192,1073 L2192,1072 L2192,1071 L2192,1070 L2192,1069 L2192,1068 L2192,1067 L2192,1066 L2192,1065 L2192,1064 L2192,1063 L2192,1062 L2192,1061 L2192,1060 L2192,1059 L2192,1058 L2192,1057 L2192,1056 L2192,1055 L2192,1054 L2192,1053 L2192,1052 L2192,1051 L2192,1050 L2192,1049 L2192,1048 L2192,1047 L2192,1046 L2192,1045 L2192,1044 L2192,1043 L2192,1042 L2192,1041 L2192,1040 L2192,1039 L2192,1038 L2192,1037 L2192,1036 L2192,1035 L2192,1034 L2192,1033 L2192,1032 L2192,1031 L2192,1030 L2192,1029 L2192,1028 L2192,1027 L2192,1026 L2192,1025 L2192,1024 L2192,1023 L2192,1022 L2192,1021 L2192,1020 L2192,1019 L2192,1018 L2192,1017 L2192,1016 L2192,1015 L2192,1014 L2192,1013 L2192,1012 L2192,1011 L2192,1010 L2192,1009 L2192,1008 L2192,1007 L2192,1006 L2192,1005 L2192,1004 L2192,1003 L2192,1002 L2192,1001 L2192,1000 L2192,999 L2192,998 L2192,997 L2192,996 L2192,995 L2192,994 L2192,993 L2192,992 L2192,991 L2192,990 L2192,989 L2192,988 L2192,987 L2192,986 L2192,985 L2192,984 L2192,983 L2192,982 L2192,981 L2192,980 L2192,979 L2192,978 L2192,977 L2192,976 L2192,975 L2192,974 L2192,973 L2192,972 L2192,971 L2192,970 L2192,969 L2192,968 L2192,967 L2192,966 L2192,965 L2192,964 L2192,963 L2192,962 L2192,961 L2192,960 L2192,959 L2192,958 L2192,957 L2192,956 L2192,955 L2192,954 L2192,953 L2192,952 L2192,951 L2192,950 L2192,949 L2192,948 L2192,947 L2192,946 L2192,945 L2192,944 L2192,943 L2192,942 L2192,941 L2192,940 L2192,939 L2192,938 L2192,937 L2192,936 L2192,935 L2192,934 L2192,933 L2192,932 L2192,931 L2192,930 L2192,929 L2192,928 L2192,927 L2192,926 L2192,925 L2192,924 L2192,923 L2192,922 L2192,921 L2192,920 L2192,919 L2192,918 L2192,917 L2192,916 L2192,915 L2192,914 L2192,913 L2192,912 L2192,911 L2192,910 L2192,909 L2192,908 L2192,907 L2192,906 L2192,905 L2192,904 L2192,903 L2192,902 L2192,901 L2192,900 L2192,899 L2192,898 L2192,897 L2192,896 L2192,895 L2192,894 L2192,893 L2192,892 L2192,891 L2192,890 L2192,889 L2192,888 L2192,887 L2192,886 L2192,885 L2192,884 L2192,883 L2192,882 L2192,881 L2192,880 L2192,879 L2192,878 L2192,877 L2192,876 L2192,875 L2192,874 L2192,873 L2192,872 L2192,871 L2192,870 L2192,869 L2192,868 L2192,867 L2192,866 L2192,865 L2192,864 L2192,863 L2192,862 L2192,861 L2192,860 L2192,859 L2192,858 L2192,857 L2192,856 L2192,855 L2192,854 L2192,853 L2192,852 L2192,851 L2192,850 L2192,849 L2192,848 L2192,847 L2192,846 L2192,845 L2192,844 L2192,843 L2192,842 L2192,841 L2192,840 L2192,839 L2192,838 L2192,837 L2192,836 L2192,835 L2192,834 L2192,833 L2192,832 L2192,831 L2192,830 L2192,829 L2192,828 L2192,827 L2192,826 L2192,825 L2192,824 L2192,823 L2192,822 L2192,821 L2192,820 L2192,819 L2192,818 L2192,817 L2192,816 L2192,815 L2192,814 L2192,813 L2192,812 L2192,811 L2192,810 L2192,809 L2192,808 L2192,807 L2192,806 L2192,805 L2192,804 L2192,803 L2192,802 L2192,801 L2192,800 L2192,799 L2192,798 L2192,797 L2192,796 L2192,795 L2192,794 L2192,793 L2192,792 L2193,791 L2193,790 L2192,789 L2192,788 L2192,787 L2192,786 L2192,785 L2192,784 L2192,783 L2192,782 L2192,781 L2192,780 L2192,779 L2192,778 L2192,777 L2192,776 L2192,775 L2192,774 L2192,773 L2192,772 L2192,771 L2192,770 L2192,769 L2192,768 L2192,767 L2192,766 L2192,765 L2192,764 L2192,763 L2192,762 L2192,761 L2192,760 L2192,759 L2192,758 L2192,757 L2192,756 L2192,755 L2192,754 L2192,753 L2192,752 L2192,751 L2192,750 L2192,749 L2192,748 L2192,747 L2192,746 L2192,745 L2192,744 L2192,743 L2192,742 L2192,741 L2192,740 L2192,739 L2192,738 L2192,737 L2192,736 L2192,735 L2192,734 L2192,733 L2192,732 L2192,731 L2192,730 L2192,729 L2192,728 L2192,727 L2192,726 L2192,725 L2192,724 L2192,723 L2192,722 L2192,721 L2192,720 L2192,719 L2192,718 L2192,717 L2192,716 L2192,715 L2192,714 L2192,713 L2192,712 L2192,711 L2192,710 L2192,709 L2192,708 L2192,707 L2192,706 L2192,705 L2192,704 L2192,703 L2192,702 L2192,701 L2192,700 L2192,699 L2192,698 L2192,697 L2192,696 L2192,695 L2192,694 L2192,693 L2192,692 L2192,691 L2192,690 L2192,689 L2192,688 L2192,687 L2192,686 L2192,685 L2192,684 L2192,683 L2192,682 L2192,681 L2192,680 L2192,679 L2192,678 L2192,677 L2192,676 L2192,675 L2192,674 L2192,673 L2192,672 L2192,671 L2192,670 L2192,669 L2192,668 L2192,667 L2192,666 L2192,665 L2192,664 L2192,663 L2192,662 L2192,661 L2192,660 L2192,659 L2192,658 L2192,657 L2192,656 L2192,655 L2193,654 L2193,653 L2193,652 L2193,651 L2193,650 L2193,649 L2193,648 L2192,647 L2192,646 L2192,645 L2192,644 L2192,643 L2192,642 L2192,641 L2192,640 L2192,639 L2192,638 L2192,637 L2192,636 L2192,635 L2192,634 L2193,633 L2193,632 L2192,631 L2192,630 L2193,629 L2193,628 L2193,627 L2193,626 L2193,625 L2193,624 L2193,623 L2193,622 L2193,621 L2193,620 L2193,619 L2193,618 L2193,617 L2193,616 L2193,615 L2192,614 L2192,613 L2192,612 L2192,611 L2192,610 L2192,609 L2192,608 L2192,607 L2192,606 L2192,605 L2192,604 L2192,603 L2192,602 L2192,601 L2192,600 L2192,599 L2192,598 L2192,597 L2192,596 L2192,595 L2192,594 L2192,593 L2192,592 L2192,591 L2192,590 L2192,589 L2192,588 L2192,587 L2192,586 L2192,585 L2192,584 L2192,583 L2192,582 L2192,581 L2192,580 L2192,579 L2192,578 L2192,577 L2192,576 L2192,575 L2192,574 L2192,573 L2192,572 L2192,571 L2192,570 L2192,569 L2192,568 L2192,567 L2192,566 L2192,565 L2192,564 L2192,563 L2192,562 L2192,561 L2192,560 L2192,559 L2192,558 L2192,557 L2192,556 L2192,555 L2192,554 L2192,553 L2192,552 L2192,551 L2192,550 L2192,549 L2192,548 L2192,547 L2192,546 L2192,545 L2192,544 L2191,543 L2191,542 L2191,541 L2191,540 L2191,539 L2191,538 L2192,537 L2192,536 L2191,535 L2191,534 L2191,533 L2191,532 L2191,531 L2191,530 L2191,529 L2191,528 L2191,527 L2191,526 L2191,525 L2191,524 L2191,523 L2191,522 L2191,521 L2191,520 L2191,519 L2191,518 L2191,517 L2191,516 L2191,515 L2191,514 L2191,513 L2191,512 L2191,511 L2191,510 L2191,509 L2191,508 L2191,507 L2191,506 L2191,505 L2191,504 L2191,503 L2191,502 L2191,501 L2191,500 L2191,499 L2191,498 L2191,497 L2191,496 L2191,495 L2191,494 L2191,493 L2191,492 L2191,491 L2191,490 L2191,489 L2191,488 L2191,487 L2191,486 L2191,485 L2191,484 L2191,483 L2191,482 L2191,481 L2191,480 L2191,479 L2191,478 L2191,477 L2191,476 L2191,475 L2191,474 L2191,473 L2191,472 L2191,471 L2191,470 L2191,469 L2191,468 L2191,467 L2191,466 L2191,465 L2191,464 L2191,463 L2191,462 L2191,461 L2191,460 L2191,459 L2191,458 L2191,457 L2191,456 L2191,455 L2191,454 L2191,453 L2191,452 L2191,451 L2191,450 L2191,449 L2191,448 L2191,447 L2191,446 L2191,445 L2191,444 L2191,443 L2190,442 L2190,441 L2190,440 L2190,439 L2190,438 L2190,437 L2190,436 L2190,435 L2190,434 L2190,433 L2190,432 L2190,431 L2190,430 L2190,429 L2190,428 L2190,427 L2190,426 L2190,425 L2190,424 L2190,423 L2190,422 L2190,421 L2190,420 L2190,419 L2190,418 L2190,417 L2190,416 L2190,415 L2190,414 L2190,413 L2190,412 L2190,411 L2190,410 L2190,409 L2190,408 L2190,407 L2190,406 L2190,405 L2190,404 L2190,403 L2190,402 L2190,401 L2190,400 L2190,399 L2190,398 L2190,397 L2190,396 L2190,395 L2190,394 L2190,393 L2190,392 L2190,391 L2190,390 L2190,389 L2190,388 L2190,387 L2190,386 L2190,385 L2190,384 L2189,383 L2189,382 L2189,381 L2189,380 L2189,379 L2189,378 L2190,377 L2190,376 L2191,375 L2191,374 L2191,373 L2191,372 L2190,371 L2190,370 L2190,369 L2190,368 L2191,367 L2191,366 L2190,365 L2191,364 L2191,363 L2191,362 L2191,361 L2191,360 L2191,359 L2190,358 L2190,357 L2190,356 L2190,355 L2191,354 L2191,353 L2191,352 L2191,351 L2191,350 L2191,349 L2191,348 L2191,347 L2191,346 L2191,345 L2191,344 L2191,343 L2191,342 L2191,341 L2191,340 L2191,339 L2191,338 L2191,337 L2191,336 L2191,335 L2191,334 L2191,333 L2191,332 L2191,331 L2191,330 L2191,329 L2191,328 L2191,327 L2191,326 L2191,325 L2191,324 L2191,323 L2191,322 L2191,321 L2191,320 L2191,319 L2191,318 L2191,317 L2191,316 L2191,315 L2191,314 L2191,313 L2191,312 L2191,311 L2191,310 L2191,309 L2191,308 L2191,307 L2191,306 L2191,305 L2191,304 L2191,303 L2191,302 L2191,301 L2191,300 L2191,299 L2191,298 L2191,297 L2191,296 L2191,295 L2191,294 L2191,293 L2191,292 L2191,291 L2191,290 L2191,289 L2191,288 L2191,287 L2191,286 L2191,285 L2191,284 L2191,283 L2191,282 L2191,281 L2191,280 L2191,279 L2190,278 L2190,277 L2190,276 L2191,275 L2191,274 L2191,273 L2191,272 L2191,271 L2191,270 L2191,269 L2191,268 L2191,267 L2191,266 L2191,265 L2191,264 L2191,263 L2191,262 L2190,261 L2190,260 L2190,259 L2190,258 L2190,257 L2191,256 L2191,255 L2191,254 L2191,253 L2191,252 L2191,251 L2191,250 L2191,249 L2191,248 L2191,247 L2191,246 L2191,245 L2191,244 L2191,243 L2191,242 L2191,241 L2191,240 L2191,239 L2191,238 L2191,237 L2191,236 L2191,235 L2191,234 L2191,233 L2190,232 L2190,231 L2190,230 L2190,229 L2191,228 L2191,227 L2191,226 L2191,225 L2191,224 L2191,223 L2191,222 L2191,221 L2191,220 L2191,219 L2191,218 L2191,217 L2191,216 L2192,215 L2192,214 L2192,213 L2191,212 L2191,211 L2191,210 L2191,209 L2191,208 L2191,207 L2191,206 L2191,205 L2191,204 L2191,203 L2191,202 L2191,201 L2191,200 L2191,199 L2191,198 L2191,197 L2191,196 L2191,195 L2191,194 L2191,193 L2191,192 L2192,191 L2192,190 L2192,189 L2192,188 L2191,187 L2191,186 L2191,185 L2191,184 L2191,183 L2191,182 L2191,181 L2191,180 L2191,179 L2191,178 L2191,177 L2191,176 L2191,175 L2191,174 L2191,173 L2191,172 L2191,171 L2191,170 L2191,169 L2191,168 L2191,167 L2191,166 L2191,165 L2191,164 L2191,163 L2191,162 L2191,161 L2191,160 L2191,159 L2191,158 L2191,157 L2191,156 L2191,155 L2192,154 L2192,153 L2192,152 L2192,151 L2192,150 L2192,149 L2192,148 L2192,147 L2192,146 L2192,145 L2191,144 L2191,143 L2191,142 L2192,141 L2192,140 L2192,139 L2192,138 L2192,137 L2192,136 L2192,135 L2192,134 L2192,133 L2192,132 L2192,131 L2192,130 L2192,129 L2192,128 L2192,127 L2192,126 L2192,125 L2192,124 L2192,123 L2192,122 L2192,121 L2192,120 L2192,119 L2192,118 L2192,117 L2192,116 L2192,115 L2192,114 L2192,113 L2192,112 L2192,111 L2192,110 L2192,109 L2192,108 L2192,107 L2192,106 L2192,105 L2192,104 L2192,103 L2192,102 L2192,101 L2192,100 L2192,99 L2192,98 L2192,97 L2192,96 L2192,95 L2192,94 L2192,93 L2192,92 L2192,91 L2192,90 L2192,89 L2192,88 L2192,87 L2192,86 L2192,85 L2192,84 L2192,83 L2192,82 L2192,81 L2192,80 L2192,79 L2192,78 L2192,77 L2192,76 L2192,75 L2192,74 L2192,73 L2192,72 L2192,71 L2192,70 L2192,69 L2192,68 L2192,67 L2192,66 L2192,65 L2192,64 L2192,63 L2192,62 L2192,61 L2192,60 L2192,59 L2192,58 L2192,57 L2192,56 L2192,55 L2192,54 L2192,53 L2192,52 L2192,51 L2192,50 L2192,49 L2192,48 L2192,47 L2192,46 L2192,45 L2192,44 L2192,43 L2192,42 L2192,41 L2192,40 L2192,39 L2192,38 L2192,37 L2192,36 L2192,35 L2192,34 L2192,33 L2192,32 L2192,31 L2192,30 L2192,29 L2192,28 L2192,27 L2192,26 L2192,25 L2192,24 L2192,23 L2192,22 L2192,21 L2192,20 L2192,19 L2192,18 L2193,17 L2194,16 L2194,15 L2194,14 L2194,13 L2194,12 L2194,11 L2194,10 L2195,9 L2200,14"/>
    <path
        style="fill:none;fill-opacity:1;stroke:#00ff00;stroke-width:2;stroke-linecap:butt;stroke-linejoin:miter;stroke-miterlimit:4;stroke-dasharray:none;stroke-opacity:1"
        id="righteye"
        d="M2876,0 L2877,1 L2878,1 L2879,1 L2880,1 L2881,1 L2882,1 L2883,1 L2884,1 L2885,1 L2886,1 L2887,1 L2888,1 L2889,1 L2890,1 L2891,1 L2892,1 L2893,1 L2894,1 L2895,1 L2896,1 L2897,1 L2898,1 L2899,1 L2900,1 L2901,1 L2902,1 L2903,1 L2904,1 L2905,1 L2906,1 L2907,1 L2908,1 L2909,1 L2910,1 L2911,1 L2912,1 L2913,1 L2914,1 L2915,1 L2916,1 L2917,1 L2918,1 L2919,1 L2920,1 L2921,1 L2922,1 L2923,1 L2924,1 L2925,1 L2926,1 L2927,1 L2928,1 L2929,1 L2930,1 L2931,1 L2932,1 L2933,1 L2934,1 L2935,1 L2936,1 L2937,1 L2938,1 L2939,1 L2940,1 L2941,1 L2942,1 L2943,1 L2944,1 L2945,1 L2946,1 L2947,1 L2948,1 L2949,1 L2950,1 L2951,1 L2952,1 L2953,1 L2954,1 L2955,1 L2956,1 L2957,1 L2958,1 L2959,1 L2960,1 L2961,1 L2962,1 L2963,1 L2964,1 L2965,1 L2966,1 L2967,1 L2968,1 L2969,1 L2970,1 L2971,1 L2972,1 L2973,1 L2974,1 L2975,1 L2976,1 L2977,1 L2978,1 L2979,1 L2980,1 L2981,1 L2982,1 L2983,1 L2984,1 L2985,1 L2986,1 L2987,1 L2988,1 L2989,1 L2990,1 L2991,1 L2992,1 L2993,1 L2994,1 L2995,1 L2996,1 L2997,1 L2998,1 L2999,1 L3000,1 L3001,1 L3002,1 L3003,1 L3004,1 L3005,1 L3006,1 L3007,1 L3008,1 L3009,1 L3010,1 L3011,1 L3012,1 L3013,1 L3014,1 L3015,1 L3016,1 L3017,1 L3018,1 L3019,1 L3020,1 L3021,1 L3022,1 L3023,1 L3024,1 L3025,1 L3026,1 L3027,1 L3028,1 L3029,1 L3030,1 L3031,1 L3032,1 L3033,1 L3034,1 L3035,1 L3036,1 L3037,1 L3038,1 L3039,1 L3040,1 L3041,1 L3042,1 L3043,1 L3044,1 L3045,1 L3046,1 L3047,1 L3048,1 L3049,1 L3050,1 L3051,1 L3052,1 L3053,1 L3054,1 L3055,1 L3056,1 L3057,1 L3058,1 L3059,1 L3060,1 L3061,1 L3062,1 L3063,1 L3064,1 L3065,1 L3066,1 L3067,1 L3068,1 L3069,1 L3070,1 L3071,1 L3072,1 L3073,1 L3074,1 L3075,1 L3076,1 L3077,1 L3078,1 L3079,1 L3080,1 L3081,1 L3082,1 L3083,1 L3084,1 L3085,1 L3086,1 L3087,1 L3088,1 L3089,1 L3090,1 L3091,1 L3092,1 L3093,1 L3094,1 L3095,1 L3096,1 L3097,1 L3098,1 L3099,1 L3100,1 L3101,1 L3102,1 L3103,1 L3104,1 L3105,1 L3106,1 L3107,1 L3108,1 L3109,1 L3110,1 L3111,1 L3112,1 L3113,1 L3114,1 L3115,1 L3116,1 L3117,1 L3118,1 L3119,1 L3120,1 L3121,1 L3122,1 L3123,1 L3124,1 L3125,1 L3126,1 L3127,1 L3128,1 L3129,1 L3130,1 L3131,1 L3132,1 L3133,1 L3134,1 L3135,1 L3136,1 L3137,1 L3138,1 L3139,1 L3140,1 L3141,1 L3142,1 L3143,1 L3144,1 L3145,1 L3146,1 L3147,1 L3148,1 L3149,1 L3150,1 L3151,1 L3152,1 L3153,1 L3154,1 L3155,1 L3156,1 L3157,1 L3158,1 L3159,1 L3160,1 L3161,1 L3162,1 L3163,1 L3164,1 L3165,1 L3166,1 L3167,1 L3168,1 L3169,1 L3170,1 L3171,1 L3172,1 L3173,1 L3174,1 L3175,1 L3176,1 L3177,1 L3178,1 L3179,1 L3180,1 L3181,1 L3182,1 L3183,1 L3184,1 L3185,1 L3186,1 L3187,1 L3188,1 L3189,1 L3190,1 L3191,1 L3192,1 L3193,1 L3194,1 L3195,1 L3196,1 L3197,1 L3198,1 L3199,1 L3200,1 L3201,1 L3202,1 L3203,1 L3204,1 L3205,1 L3206,1 L3207,1 L3208,1 L3209,1 L3210,1 L3211,1 L3212,1 L3213,1 L3214,1 L3215,1 L3216,1 L3217,1 L3218,1 L3219,1 L3220,1 L3221,1 L3222,1 L3223,1 L3224,1 L3225,1 L3226,1 L3227,1 L3228,1 L3229,1 L3230,1 L3231,1 L3232,1 L3233,1 L3234,1 L3235,1 L3236,1 L3237,1 L3238,1 L3239,1 L3240,1 L3241,1 L3242,1 L3243,1 L3244,1 L3245,1 L3246,1 L3247,1 L3248,1 L3249,1 L3250,1 L3251,1 L3252,1 L3253,1 L3254,1 L3255,1 L3256,1 L3257,1 L3258,1 L3259,1 L3260,1 L3261,1 L3262,1 L3263,1 L3264,1 L3265,1 L3266,1 L3267,1 L3268,1 L3269,1 L3270,1 L3271,1 L3272,1 L3273,1 L3274,1 L3275,1 L3276,1 L3277,1 L3278,1 L3279,1 L3280,1 L3281,1 L3282,1 L3283,1 L3284,1 L3285,1 L3286,1 L3287,1 L3288,1 L3289,1 L3290,1 L3291,1 L3292,1 L3293,1 L3294,1 L3295,1 L3296,1 L3297,1 L3298,1 L3299,1 L3300,1 L3301,1 L3302,1 L3303,1 L3304,1 L3305,1 L3306,1 L3307,1 L3308,1 L3309,1 L3310,1 L3311,1 L3312,1 L3313,1 L3314,1 L3315,1 L3316,1 L3317,1 L3318,1 L3319,1 L3320,1 L3321,1 L3322,1 L3323,1 L3324,1 L3325,1 L3326,1 L3327,1 L3328,1 L3329,1 L3330,1 L3331,1 L3332,1 L3333,1 L3334,1 L3335,1 L3336,1 L3337,1 L3338,1 L3339,1 L3340,1 L3341,1 L3342,1 L3343,1 L3344,1 L3345,2 L3346,2 L3347,2 L3348,2 L3349,2 L3350,2 L3351,2 L3352,2 L3353,2 L3354,3 L3355,2 L3356,1 L3357,1 L3358,1 L3359,1 L3360,1 L3361,1 L3362,1 L3363,1 L3364,1 L3365,1 L3366,1 L3367,1 L3368,1 L3369,1 L3370,1 L3371,1 L3372,1 L3373,1 L3374,1 L3375,1 L3376,1 L3377,1 L3378,1 L3379,1 L3380,1 L3381,1 L3382,1 L3383,1 L3384,1 L3385,1 L3386,1 L3387,1 L3388,1 L3389,1 L3390,1 L3391,1 L3392,1 L3393,1 L3394,1 L3395,1 L3396,1 L3397,1 L3398,1 L3399,1 L3400,1 L3401,1 L3402,1 L3403,1 L3404,1 L3405,1 L3406,1 L3407,1 L3408,1 L3409,1 L3410,1 L3411,1 L3412,1 L3413,1 L3414,1 L3415,1 L3416,1 L3417,1 L3418,1 L3419,2 L3420,3 L3421,3 L3422,3 L3423,3 L3424,3 L3425,3 L3426,3 L3427,2 L3428,2 L3429,2 L3430,3 L3431,3 L3432,3 L3433,2 L3434,2 L3435,2 L3436,2 L3437,2 L3438,2 L3439,2 L3440,2 L3441,2 L3442,2 L3443,3 L3444,3 L3445,3 L3446,4 L3447,5 L3448,5 L3449,5 L3450,5 L3451,5 L3452,6 L3453,6 L3454,5 L3455,4 L3456,3 L3457,2 L3458,2 L3459,2 L3460,2 L3461,2 L3462,2 L3463,3 L3464,3 L3465,3 L3466,3 L3467,3 L3468,3 L3469,3 L3470,3 L3471,3 L3472,3 L3473,3 L3474,3 L3475,3 L3476,3 L3477,3 L3478,3 L3479,3 L3480,3 L3481,3 L3482,3 L3483,3 L3484,3 L3485,3 L3486,3 L3487,3 L3488,3 L3489,3 L3490,3 L3491,3 L3492,3 L3493,3 L3494,3 L3495,2 L3496,2 L3497,2 L3498,2 L3499,3 L3500,3 L3501,3 L3502,2 L3503,2 L3504,2 L3505,2 L3506,3 L3507,3 L3508,3 L3509,3 L3510,3 L3511,3 L3512,3 L3513,3 L3514,2 L3515,2 L3516,2 L3517,1 L3518,1 L3519,1 L3520,1 L3521,1 L3522,1 L3523,1 L3524,1 L3525,1 L3526,1 L3527,1 L3528,1 L3529,1 L3530,1 L3531,1 L3532,2 L3533,2 L3534,3 L3535,3 L3536,3 L3537,3 L3538,3 L3539,3 L3540,3 L3541,3 L3542,3 L3543,3 L3544,3 L3545,3 L3546,3 L3547,3 L3548,3 L3549,3 L3550,3 L3551,3 L3552,3 L3553,3 L3554,3 L3555,3 L3556,3 L3557,3 L3558,3 L3559,3 L3560,3 L3561,3 L3562,3 L3563,3 L3564,3 L3565,3 L3566,3 L3567,3 L3568,3 L3569,3 L3570,3 L3571,3 L3572,3 L3573,3 L3574,3 L3575,3 L3576,3 L3577,3 L3578,3 L3579,3 L3580,3 L3581,3 L3582,3 L3583,2 L3584,2 L3585,2 L3586,2 L3587,3 L3588,3 L3589,2 L3590,2 L3591,2 L3592,2 L3593,2 L3594,3 L3595,3 L3596,3 L3597,3 L3598,3 L3599,3 L3600,3 L3601,3 L3602,3 L3603,3 L3604,3 L3605,3 L3606,2 L3607,2 L3608,3 L3609,3 L3610,3 L3611,3 L3612,3 L3613,3 L3614,3 L3615,3 L3616,3 L3617,3 L3618,3 L3619,3 L3620,3 L3621,2 L3622,2 L3623,2 L3624,2 L3625,3 L3626,3 L3627,3 L3628,3 L3629,3 L3630,3 L3631,3 L3632,3 L3633,3 L3634,3 L3635,3 L3636,3 L3637,3 L3638,3 L3639,3 L3640,3 L3641,3 L3642,3 L3643,3 L3644,3 L3645,2 L3646,2 L3647,2 L3648,2 L3649,3 L3650,3 L3651,3 L3652,3 L3653,2 L3654,2 L3655,2 L3656,3 L3657,3 L3658,3 L3659,3 L3660,3 L3661,3 L3662,3 L3663,3 L3664,4 L3665,5 L3666,5 L3667,4 L3668,3 L3669,3 L3670,2 L3671,2 L3672,2 L3673,2 L3674,3 L3675,3 L3676,2 L3677,2 L3678,2 L3679,3 L3680,3 L3681,3 L3682,4 L3683,4 L3684,4 L3685,4 L3686,4 L3687,4 L3688,4 L3689,4 L3690,4 L3691,4 L3692,4 L3693,4 L3694,4 L3695,4 L3696,4 L3697,4 L3698,3 L3699,2 L3700,2 L3701,2 L3702,2 L3703,2 L3704,2 L3705,2 L3706,2 L3707,2 L3708,2 L3709,3 L3710,3 L3711,3 L3712,3 L3713,3 L3714,4 L3715,4 L3716,4 L3717,4 L3718,4 L3719,4 L3720,4 L3721,3 L3722,3 L3723,3 L3724,3 L3725,3 L3726,3 L3727,4 L3728,5 L3729,4 L3730,3 L3731,2 L3732,2 L3733,2 L3734,2 L3735,2 L3736,2 L3737,2 L3738,2 L3739,2 L3740,2 L3741,2 L3742,2 L3743,2 L3744,2 L3745,2 L3746,2 L3747,2 L3748,2 L3749,2 L3750,2 L3751,2 L3752,2 L3753,2 L3754,2 L3755,2 L3756,2 L3757,2 L3758,2 L3759,2 L3760,2 L3761,2 L3762,2 L3763,2 L3764,2 L3765,2 L3766,2 L3767,2 L3768,2 L3769,2 L3770,2 L3771,2 L3772,1 L3773,1 L3774,1 L3775,1 L3776,1 L3777,1 L3778,1 L3779,1 L3780,1 L3781,1 L3782,1 L3783,1 L3784,1 L3785,1 L3786,1 L3787,1 L3788,1 L3789,1 L3790,1 L3791,1 L3792,1 L3793,1 L3794,1 L3795,1 L3796,1 L3797,1 L3798,1 L3799,1 L3800,1 L3801,1 L3802,1 L3803,1 L3804,1 L3805,1 L3806,1 L3807,1 L3808,1 L3809,1 L3810,1 L3811,1 L3812,1 L3813,1 L3814,1 L3815,1 L3816,1 L3817,1 L3818,1 L3819,1 L3820,1 L3821,2 L3822,2 L3823,2 L3824,1 L3825,1 L3826,1 L3827,1 L3828,2 L3829,2 L3830,2 L3831,2 L3832,2 L3833,2 L3834,2 L3835,2 L3836,1 L3837,1 L3838,1 L3839,1 L3840,1 L3841,1 L3842,1 L3843,1 L3844,1 L3845,1 L3846,1 L3847,1 L3848,1 L3849,1 L3850,1 L3851,1 L3852,1 L3853,0 L3853,1 L3854,2 L3855,1 L3856,1 L3857,1 L3858,2 L3859,3 L3860,3 L3861,3 L3862,3 L3863,3 L3864,3 L3865,3 L3866,3 L3867,3 L3868,3 L3869,3 L3870,3 L3871,3 L3872,3 L3873,3 L3874,3 L3875,2 L3876,2 L3877,3 L3878,4 L3878,5 L3879,4 L3880,3 L3881,3 L3882,3 L3883,4 L3884,5 L3885,5 L3886,4 L3887,3 L3888,3 L3889,3 L3890,3 L3891,3 L3892,3 L3893,3 L3894,2 L3895,2 L3896,2 L3897,1 L3898,1 L3899,1 L3900,1 L3901,2 L3902,2 L3903,2 L3904,2 L3905,1 L3906,1 L3907,1 L3908,1 L3909,2 L3910,2 L3911,2 L3912,2 L3913,2 L3914,1 L3915,1 L3916,1 L3917,2 L3918,2 L3919,2 L3920,2 L3921,2 L3922,2 L3923,3 L3924,3 L3925,2 L3926,2 L3927,2 L3928,2 L3929,2 L3930,2 L3931,2 L3932,2 L3933,2 L3934,2 L3935,2 L3936,2 L3937,3 L3938,3 L3939,3 L3940,3 L3941,4 L3942,4 L3943,4 L3944,3 L3945,2 L3946,1 L3947,1 L3948,2 L3949,2 L3950,2 L3951,2 L3952,2 L3953,2 L3954,2 L3955,3 L3956,3 L3957,2 L3958,1 L3959,1 L3960,1 L3961,1 L3962,1 L3963,1 L3964,1 L3965,2 L3966,2 L3967,2 L3968,2 L3969,2 L3970,2 L3971,2 L3972,2 L3973,2 L3974,2 L3975,2 L3976,2 L3977,2 L3978,2 L3979,2 L3980,2 L3981,3 L3982,3 L3983,3 L3984,3 L3985,3 L3986,3 L3987,3 L3988,2 L3989,2 L3990,2 L3991,2 L3992,2 L3993,2 L3994,2 L3995,2 L3996,2 L3997,2 L3998,2 L3999,2 L4000,2 L4001,2 L4002,2 L4003,2 L4004,2 L4005,2 L4006,2 L4007,2 L4008,2 L4009,2 L4010,2 L4011,2 L4012,3 L4013,3 L4014,3 L4015,2 L4016,1 L4017,1 L4018,1 L4019,2 L4020,2 L4021,2 L4022,2 L4023,2 L4024,2 L4025,2 L4026,2 L4027,2 L4028,2 L4029,2 L4030,2 L4031,2 L4032,2 L4033,2 L4034,2 L4035,2 L4036,2 L4037,2 L4038,2 L4039,2 L4040,2 L4041,2 L4042,2 L4043,2 L4044,2 L4045,2 L4046,2 L4047,2 L4048,2 L4049,2 L4050,2 L4051,2 L4052,2 L4053,2 L4054,2 L4055,1 L4056,1 L4057,1 L4058,1 L4059,1 L4060,1 L4061,2 L4062,2 L4063,1 L4064,1 L4065,2 L4066,2 L4067,2 L4068,2 L4069,2 L4070,2 L4071,1 L4072,1 L4073,1 L4074,2 L4075,2 L4076,1 L4077,1 L4078,1 L4079,2 L4080,2 L4081,2 L4082,2 L4083,2 L4084,2 L4085,2 L4086,2 L4087,2 L4088,2 L4089,2 L4090,2 L4091,2 L4092,2 L4093,2 L4094,2 L4095,2 L4096,2 L4097,2 L4098,2 L4099,2 L4100,2 L4101,2 L4102,2 L4103,2 L4104,2 L4105,2 L4106,2 L4107,2 L4108,2 L4109,2 L4110,2 L4111,2 L4112,2 L4113,2 L4114,2 L4115,2 L4116,2 L4117,2 L4118,2 L4119,2 L4120,2 L4121,2 L4122,2 L4123,2 L4124,2 L4125,2 L4126,2 L4127,3 L4128,3 L4129,2 L4130,1 L4131,1 L4132,1 L4133,2 L4134,3 L4135,4 L4136,4 L4137,4 L4138,3 L4139,3 L4140,3 L4141,2 L4142,3 L4143,3 L4144,3 L4145,4 L4146,5 L4147,5 L4148,5 L4149,5 L4150,5 L4151,4 L4152,3 L4153,2 L4154,1 L4155,1 L4156,1 L4157,1 L4158,1 L4159,2 L4160,2 L4161,2 L4162,2 L4163,2 L4164,3 L4165,3 L4166,3 L4167,3 L4168,3 L4169,3 L4170,3 L4171,4 L4172,5 L4173,5 L4174,5 L4175,5 L4176,5 L4177,4 L4178,4 L4179,4 L4180,4 L4181,4 L4182,4 L4183,4 L4184,4 L4185,3 L4186,3 L4187,3 L4188,3 L4189,3 L4190,3 L4191,2 L4192,1 L4193,1 L4194,1 L4195,1 L4196,1 L4197,1 L4198,1 L4199,1 L4200,1 L4201,1 L4202,1 L4203,1 L4204,1 L4205,1 L4206,1 L4207,1 L4208,2 L4209,3 L4210,3 L4211,3 L4212,2 L4213,1 L4214,1 L4215,1 L4216,1 L4217,1 L4218,1 L4219,1 L4220,1 L4221,1 L4222,2 L4223,2 L4224,2 L4225,2 L4226,1 L4227,1 L4228,1 L4229,1 L4230,1 L4231,1 L4232,1 L4233,1 L4234,1 L4235,1 L4236,1 L4237,1 L4238,1 L4239,1 L4240,1 L4241,1 L4242,1 L4243,2 L4244,2 L4245,2 L4246,3 L4247,3 L4248,3 L4249,3 L4250,3 L4251,3 L4252,4 L4253,4 L4254,5 L4255,6 L4256,5 L4257,6 L4258,7 L4259,8 L4260,8 L4261,7 L4262,6 L4263,5 L4264,4 L4265,4 L4266,3 L4267,2 L4268,2 L4269,2 L4270,2 L4271,2 L4272,2 L4273,2 L4274,2 L4275,2 L4276,2 L4277,2 L4278,2 L4279,2 L4280,2 L4281,2 L4282,2 L4283,1 L4284,1 L4285,1 L4286,1 L4287,1 L4288,1 L4289,1 L4290,1 L4291,2 L4292,2 L4293,2 L4294,2 L4295,2 L4296,2 L4297,2 L4298,2 L4299,1 L4300,1 L4301,1 L4302,1 L4303,2 L4304,2 L4305,2 L4306,1 L4307,1 L4308,1 L4309,1 L4310,1 L4311,1 L4312,1 L4313,1 L4314,1 L4315,1 L4316,1 L4317,1 L4318,1 L4319,1 L4320,1 L4321,1 L4322,1 L4323,1 L4324,1 L4325,1 L4326,1 L4327,1 L4328,1 L4329,2 L4330,2 L4331,2 L4332,2 L4333,1 L4334,1 L4335,1 L4336,1 L4337,1 L4338,1 L4339,1 L4340,1 L4341,1 L4342,1 L4343,1 L4344,1 L4345,1 L4346,1 L4347,1 L4348,2 L4349,2 L4350,2 L4351,2 L4352,2 L4353,1 L4354,1 L4355,1 L4356,1 L4357,1 L4358,1 L4359,1 L4360,1 L4361,1 L4362,1 L4363,1 L4364,1 L4365,1 L4366,1 L4367,1 L4368,1 L4369,1 L4370,2 L4371,2 L4372,2 L4373,2 L4374,2 L4375,1 L4376,1 L4377,1 L4378,1 L4379,1 L4380,1 L4381,1 L4382,1 L4383,1 L4384,1 L4385,1 L4386,1 L4387,1 L4388,1 L4389,1 L4390,1 L4391,1 L4392,1 L4393,1 L4394,1 L4395,1 L4396,1 L4397,1 L4398,1 L4399,1 L4400,1 L4401,1 L4402,1 L4403,1 L4404,1 L4405,1 L4406,1 L4407,1 L4408,1 L4409,1 L4410,1 L4411,1 L4412,1 L4413,1 L4414,1 L4415,1 L4416,1 L4417,1 L4418,1 L4419,1 L4420,1 L4421,1 L4422,1 L4423,1 L4424,1 L4425,1 L4426,1 L4427,1 L4428,1 L4429,1 L4430,1 L4431,1 L4432,1 L4433,1 L4434,1 L4435,1 L4436,1 L4437,1 L4438,1 L4439,1 L4440,1 L4441,1 L4442,1 L4443,1 L4444,1 L4445,1 L4446,1 L4447,1 L4448,1 L4449,1 L4450,1 L4451,1 L4452,1 L4453,1 L4454,1 L4455,1 L4456,1 L4457,1 L4458,1 L4459,1 L4460,1 L4461,1 L4462,1 L4463,1 L4464,1 L4465,1 L4466,1 L4467,1 L4468,1 L4469,1 L4470,1 L4471,1 L4472,1 L4473,1 L4474,1 L4475,1 L4476,1 L4477,1 L4478,2 L4479,3 L4480,4 L4481,5 L4482,5 L4483,6 L4483,7 L4484,8 L4485,9 L4486,9 L4487,8 L4488,7 L4489,6 L4490,5 L4491,4 L4492,3 L4492,2 L4493,1 L4494,1 L4495,1 L4496,1 L4497,1 L4498,1 L4499,1 L4500,1 L4501,1 L4502,1 L4503,1 L4504,1 L4505,1 L4506,1 L4507,1 L4508,1 L4509,1 L4510,1 L4511,1 L4512,1 L4513,1 L4514,1 L4515,1 L4516,1 L4517,1 L4518,1 L4519,1 L4520,1 L4521,1 L4522,1 L4523,1 L4524,1 L4525,1 L4526,1 L4527,1 L4528,1 L4529,1 L4530,1 L4531,1 L4532,1 L4533,1 L4534,1 L4535,1 L4536,1 L4537,1 L4538,1 L4539,1 L4540,1 L4541,1 L4542,1 L4543,1 L4544,1 L4545,1 L4546,1 L4547,1 L4548,1 L4549,1 L4550,1 L4551,1 L4552,1 L4553,1 L4554,1 L4555,1 L4556,1 L4557,1 L4558,1 L4559,1 L4560,1 L4561,1 L4562,1 L4563,1 L4564,1 L4565,1 L4566,1 L4567,1 L4568,1 L4569,1 L4570,1 L4571,1 L4572,1 L4573,1 L4574,2 L4575,2 L4576,2 L4577,2 L4578,1 L4579,1 L4580,1 L4581,1 L4582,1 L4583,1 L4584,1 L4585,1 L4586,1 L4587,1 L4588,1 L4589,1 L4590,1 L4591,1 L4592,1 L4593,1 L4594,1 L4595,1 L4596,1 L4597,1 L4598,1 L4599,1 L4600,1 L4601,1 L4602,1 L4603,1 L4604,1 L4605,1 L4606,1 L4607,1 L4608,1 L4609,1 L4610,1 L4611,1 L4612,1 L4613,1 L4614,1 L4615,1 L4616,1 L4617,1 L4618,1 L4619,1 L4620,1 L4621,1 L4622,1 L4623,1 L4624,1 L4625,1 L4626,1 L4627,1 L4628,1 L4629,1 L4630,2 L4631,2 L4632,2 L4633,1 L4634,1 L4635,1 L4636,1 L4637,1 L4638,1 L4639,1 L4640,1 L4641,1 L4642,1 L4643,1 L4644,1 L4645,1 L4646,1 L4647,1 L4648,1 L4649,1 L4650,1 L4651,1 L4652,1 L4653,1 L4654,1 L4655,1 L4656,1 L4657,1 L4658,1 L4659,1 L4660,1 L4661,1 L4662,1 L4663,1 L4664,1 L4665,1 L4666,2 L4667,2 L4668,2 L4669,2 L4670,2 L4671,1 L4672,1 L4673,1 L4674,1 L4675,1 L4676,1 L4677,1 L4678,1 L4679,1 L4680,1 L4681,1 L4682,1 L4683,1 L4684,1 L4685,1 L4686,1 L4687,1 L4688,1 L4689,1 L4690,1 L4691,1 L4692,1 L4693,1 L4694,1 L4695,1 L4696,1 L4697,1 L4698,1 L4699,1 L4700,1 L4701,1 L4702,1 L4703,1 L4704,1 L4705,1 L4706,1 L4707,1 L4708,1 L4709,1 L4710,1 L4711,1 L4712,1 L4713,1 L4714,1 L4715,1 L4716,1 L4717,1 L4718,1 L4719,1 L4720,1 L4721,1 L4722,1 L4723,1 L4724,1 L4725,1 L4726,1 L4727,1 L4728,1 L4729,1 L4730,1 L4731,1 L4732,1 L4733,1 L4734,1 L4735,1 L4736,1 L4737,1 L4738,1 L4739,1 L4740,1 L4741,1 L4742,1 L4743,1 L4744,1 L4745,1 L4746,1 L4747,1 L4748,1 L4749,1 L4750,1 L4751,1 L4752,1 L4753,1 L4754,1 L4755,1 L4756,1 L4757,1 L4758,1 L4759,1 L4760,1 L4761,1 L4762,1 L4763,1 L4764,1 L4765,1 L4766,1 L4767,1 L4768,1 L4769,1 L4770,1 L4771,1 L4772,1 L4773,1 L4774,1 L4775,1 L4776,1 L4777,1 L4778,1 L4779,1 L4780,1 L4781,1 L4782,1 L4783,1 L4784,1 L4785,1 L4786,1 L4787,1 L4788,1 L4789,1 L4790,1 L4791,1 L4792,1 L4793,1 L4794,1 L4795,1 L4796,1 L4797,1 L4798,1 L4799,1 L4800,1 L4801,1 L4802,1 L4803,1 L4804,1 L4805,1 L4806,1 L4807,1 L4808,1 L4809,1 L4810,1 L4811,1 L4812,1 L4813,1 L4814,1 L4815,1 L4816,1 L4817,1 L4818,1 L4819,1 L4820,1 L4821,1 L4822,1 L4823,1 L4824,1 L4825,1 L4826,1 L4827,1 L4828,1 L4829,1 L4830,1 L4831,1 L4832,1 L4833,1 L4834,1 L4835,1 L4836,1 L4837,1 L4838,1 L4839,1 L4840,1 L4841,1 L4842,1 L4843,1 L4844,1 L4845,1 L4846,1 L4847,1 L4848,1 L4849,1 L4850,1 L4851,1 L4852,1 L4853,1 L4854,1 L4855,1 L4856,1 L4857,1 L4858,1 L4859,2 L4859,3 L4860,4 L4861,4 L4862,4 L4863,4 L4864,5 L4865,5 L4866,5 L4867,4 L4868,3 L4869,2 L4870,2 L4871,2 L4872,3 L4873,2 L4874,1 L4875,1 L4876,1 L4877,1 L4878,1 L4879,1 L4880,1 L4881,1 L4882,1 L4883,1 L4884,1 L4885,1 L4886,1 L4887,1 L4888,1 L4889,1 L4890,1 L4891,1 L4892,1 L4893,1 L4894,1 L4895,1 L4896,1 L4897,1 L4898,1 L4899,1 L4900,1 L4901,1 L4902,1 L4903,1 L4904,1 L4905,1 L4906,1 L4907,1 L4908,1 L4909,1 L4910,1 L4911,1 L4912,1 L4913,1 L4914,1 L4915,1 L4916,1 L4917,1 L4918,1 L4919,1 L4920,1 L4921,1 L4922,1 L4923,1 L4924,1 L4925,1 L4926,1 L4927,1 L4928,1 L4929,1 L4930,1 L4931,1 L4932,1 L4933,1 L4934,1 L4935,1 L4936,1 L4937,1 L4938,1 L4939,1 L4940,1 L4941,1 L4942,1 L4943,1 L4944,1 L4945,1 L4946,1 L4947,1 L4948,1 L4949,1 L4950,1 L4951,1 L4952,2 L4953,2 L4954,2 L4955,1 L4956,1 L4957,1 L4958,1 L4959,2 L4960,3 L4961,3 L4962,3 L4963,3 L4964,3 L4965,2 L4966,2 L4967,1 L4968,1 L4969,1 L4970,1 L4971,1 L4972,1 L4973,1 L4974,1 L4975,1 L4976,1 L4977,1 L4978,1 L4979,1 L4980,1 L4981,1 L4982,1 L4983,1 L4984,1 L4985,1 L4986,1 L4987,1 L4988,1 L4989,1 L4990,1 L4991,1 L4992,1 L4993,1 L4994,1 L4995,2 L4996,2 L4997,2 L4998,1 L4999,2 L5000,1 L5001,1 L5002,1 L5003,1 L5004,1 L5005,1 L5006,1 L5007,1 L5008,1 L5009,1 L5010,1 L5011,1 L5012,1 L5013,1 L5014,1 L5015,1 L5016,1 L5017,1 L5018,2 L5019,3 L5020,4 L5021,5 L5022,6 L5023,6 L5024,5 L5025,4 L5026,3 L5027,3 L5028,3 L5029,2 L5030,2 L5031,2 L5032,2 L5033,3 L5033,4 L5033,5 L5033,6 L5033,7 L5034,8 L5035,9 L5036,9 L5037,9 L5038,8 L5039,7 L5040,8 L5041,7 L5042,6 L5043,5 L5044,5 L5045,5 L5046,5 L5047,4 L5048,3 L5049,2 L5050,1 L5051,1 L5052,1 L5053,1 L5054,1 L5055,1 L5056,0 L5057,1 L5058,2 L5059,3 L5060,3 L5061,3 L5062,3 L5063,2 L5064,1 L5065,1 L5066,0 L5066,1924 L5066,2050 L2876,2050 L2876,164 L2876,0 L2876,0"/>
    <path
        style="fill:none;fill-opacity:1;stroke:#000000;stroke-width:2;stroke-linecap:butt;stroke-linejoin:miter;stroke-miterlimit:4;stroke-dasharray:none;stroke-opacity:1"
        id="support"
        d="M5,5 L5056,5 L5056,2045 L0,2045 L5,5 L5,5"/>
    <path
        style="fill:none;fill-opacity:1;stroke:#0000ff;stroke-width:2;stroke-linecap:butt;stroke-linejoin:miter;stroke-miterlimit:4;stroke-dasharray:none;stroke-opacity:1"
        id="lefteye-bottom-line"
        d="M5,2044 L2199,2046"/>
    <path
        style="fill:none;fill-opacity:1;stroke:#0000ff;stroke-width:2;stroke-linecap:butt;stroke-linejoin:miter;stroke-miterlimit:4;stroke-dasharray:none;stroke-opacity:1"
        id="righteye-bottom-line"
        d="M5066,2050 L2876,2050"/>
    <path
        style="fill:none;fill-opacity:1;stroke:#0000ff;stroke-width:2;stroke-linecap:butt;stroke-linejoin:miter;stroke-miterlimit:4;stroke-dasharray:none;stroke-opacity:1"
        id="support-bottom-line"
        d="M5067,2051 L0, 2051"/>
</svg>