<?xml version="1.0" encoding="UTF-8" standalone="no"?>
<!-- "This file was generated by the S2S application" -->
<svg
    version="1.1"
    id="Eyeplants+stereo"
    width="1500"
    height="500"
    viewbox="0 0 1500 500"
    xmlns:xlink="http://www.w3.org/1999/xlink"
    xmlns="http://www.w3.org/2000/svg"
    xmlns:svg="http://www.w3.org/2000/svg">
    <image
        id="image"
        width="1500"
        height="500"
        stereotheque_dpiX = "1200"
        stereotheque_dpiY = "1200"
        stereotheque_max-disparity-left = "-1,-1"
        stereotheque_min-disparity-left = "-1,-1"
        stereotheque_max-disparity-right = "-1,-1"
        stereotheque_min-disparity-right = "-1,-1"
        homography = "0.995419,-0.0409553,4.03199,-0.00533314,1.00294,1.49901,-2.27864e-05,1.28507e-05,1"
        preserveAspectRatio="none"
        xlink:href="Eyeplants+stereo.jpg"/>
    <path
        style="fill:none;fill-opacity:1;stroke:#ff0000;stroke-width:2;stroke-linecap:butt;stroke-linejoin:miter;stroke-miterlimit:4;stroke-dasharray:none;stroke-opacity:1"
        id="lefteye"
        d="M98,61 L101,51 L420,50 L701,52 L703,55 L706,61 L707,102 L705,448 L690,449 L101,448 L100,447 L99,423 L98,61"/>
    <path
        style="fill:none;fill-opacity:1;stroke:#00ff00;stroke-width:2;stroke-linecap:butt;stroke-linejoin:miter;stroke-miterlimit:4;stroke-dasharray:none;stroke-opacity:1"
        id="righteye"
        d="M849,197 L850,50 L976,48 L1452,51 L1453,52 L1455,55 L1456,58 L1457,293 L1455,448 L849,447 L848,443 L849,197"/>
    <path
        style="fill:none;fill-opacity:1;stroke:#000000;stroke-width:2;stroke-linecap:butt;stroke-linejoin:miter;stroke-miterlimit:4;stroke-dasharray:none;stroke-opacity:1"
        id="support"
        d="M0,0 L1500,0 L1500,500 L0,500 L0,0 L0,0"/>
    <path
        style="fill:none;fill-opacity:1;stroke:#0000ff;stroke-width:2;stroke-linecap:butt;stroke-linejoin:miter;stroke-miterlimit:4;stroke-dasharray:none;stroke-opacity:1"
        id="lefteye-bottom-line"
        d="M690,449 L101,448"/>
    <path
        style="fill:none;fill-opacity:1;stroke:#0000ff;stroke-width:2;stroke-linecap:butt;stroke-linejoin:miter;stroke-miterlimit:4;stroke-dasharray:none;stroke-opacity:1"
        id="righteye-bottom-line"
        d="M1455,448 L849,447"/>
    <path
        style="fill:none;fill-opacity:1;stroke:#0000ff;stroke-width:2;stroke-linecap:butt;stroke-linejoin:miter;stroke-miterlimit:4;stroke-dasharray:none;stroke-opacity:1"
        id="support-bottom-line"
        d="M1500,500 L0,500"/>
</svg>